<svg xmlns="http://www.w3.org/2000/svg" width="1225" height="816" viewBox="0 0 1225 816"><path fill="None" fill-opacity="0.0" stroke="#FEFEFE" stroke-opacity="1.00" stroke-width="0.3" d="M0 816h1225V0H0v816m255-605c-.43 2.54-.51 6.89 1 9 5.45 5.45 12.39 8.3 10 18s.9 18.51-1.98 27.02c-2.87 8.52.23 17.96 9.05 17.91 8.83-.06 15.74.72 24 3 8.27 2.27 16.04 2.82 23.94 5.06 7.89 2.25 14.89 3.41 22.66 5.34s15.29 4.16 23.01 5.99c7.72 1.84 15.68 3.96 23.32 5.68 7.65 1.72 15.23 4.52 22.68 6.32 7.44 1.8 15.13 4.98 22.34 6.66 7.22 1.67 11.03-5.71 17.23-8.73 6.19-3.02 12-7.38 17.98-11.02s11.91-7.34 18-11c6.08-3.66 11.65-7.49 18-11 6.34-3.51 12.13-7.03 18.8-10.2s12.51-5.88 20.04-7.96c7.54-2.07 16.76-3.09 24.93-4.07s17.49-2.78 26-3 19.21-2.18 27.67-.67 15.87 3.38 24 5 14.58 3.95 22.55 5.45c7.98 1.49 16.08 3.2 23.85 5.15 7.77 1.94 16.03 3.03 23.6 5.4s15.06 4.29 22.55 6.45c7.5 2.16 14.74 4.61 22 7 7.27 2.38 13.23 4.31 20.01 7.99s10.82 6.8 16.02 12.98c5.21 6.17 3.77 15.79 1.76 23.26-2.01 7.46-3.93 15.66-5.99 23.01-2.05 7.36-4.06 13.66-10.02 18.98 56.63-3.79 111.66-14 169-15 6.02-9.44 16.79-18.3 30-16 3.51-.34 7.52-.42 11 0 10.09.2 17.2 8.17 26.68 2.68s17.07-7.33 27.34-9.66c10.28-2.32 20.6-4.12 31.05-5.95 10.46-1.83 20.51-4.03 31-6 10.49-1.96 20.55-3.88 31.15-5.85 10.61-1.97 19.88-4.25 30.8-6.2 10.93-1.95 18.56-5.97 30.65-5.69 12.09.29 11.08 14.59.31 16.64-10.78 2.06-15.5 9.1-25.06 11.95-9.55 2.86-16.44 7.82-25.15 11.85s-16.31 7.61-24.85 12.15c-8.53 4.55-15.81 8.09-24.6 12.4-8.78 4.31-17.12 8.08-27.32 9.68-10.21 1.59-20.7-.41-30.08-4.92-9.38-4.52-20.37-5.7-30.92-6.08 2.08 6.67 15.88 9.1 13 20s.09 21.78-1 33c16.93 4.59 21.28 19.9 18 36s-2.99 34.84-5.98 51.02c-2.98 16.19-1.46 36.39-5.02 51.98s2.37 37.22-13 44c-4.08.95-8.05.56-12 0-9.01-.34-22.78-3.32-22-15 .79-11.68.35-23.31 2-35s1.74-21.71 3-34 1.7-20.56 3-34-15.97-10.33-27-10-22.61-.47-32.23-5.77-20.71-4.39-31.77-5.23-22.71-2.53-34.02-2.98c-11.32-.44-22.8-1.9-34-3-11.21-1.09-24.03-.29-34.98-2.02s-22.39-1.87-33.02-3.98c-10.63-2.1-19.93-4.25-29.98-8.02-4.83 17.61-20.33 31.46-40 27 .03 8.09-15.29 25.23-3 28s26.14-2.19 39-1c9.12-.88 19.95-.88 29 0 9.77 0 18.29 1.25 28 2 9.72.75 19.13.78 29 2s18.75.32 29 2 3.75 13.51-5.22 12.78c-8.98-.73-18.05 3.45-26.78 4.22-8.74.77-17.45 3.71-26.07 4.93-8.63 1.21-17.06 3-25.6 4.4S746.82 537.5 738 537s-14.53-5.17-21.7-9.3c-7.17-4.14-14.67-7.92-23.3-7.7 3.19 7.44 16.18 10.04 13.22 21.22-2.95 11.18-1.33 22.16-1.91 32.47-.58 10.32.99 21.78-4.08 31.54s-18.33 6.98-28.45 6.99-20.47-3.47-31.46-4.54c-10.98-1.07-12.26-12.44-19.02-17.98-6.75-5.55-16.27-8.69-23.99-13-7.73-4.32-15.93-8.88-24.01-13-8.07-4.13-16.38-9.92-25.3-11.7-2.95 17.67-39.37 19.11-36-2-10.07-4.55-21.31 4.86-32 1s-16.14-11.73-28-12-21.04-7.36-33-7c2.39 15.2-29.36 17.45-30.99 3.99-1.63-13.45-18.05-17.85-20.01-31.99-14.02 6.07-29.07 2.73-44 2s-32.84-2.82-47.67-2.33-32.51-4.99-46.35-3.65c-13.85 1.35-27.16 10.62-41.05 5.05s-29.22.36-40.16-9.84-.83-30.76.23-42.23c-14.26-3.3-9.18-17.44-9-29s2.49-26.18 3-38c-10.97 2.69-25.07.71-35.02-2.98-9.95-3.68-18.01-8.6-27.2-12.8-9.19-4.19-18.96-9.56-28.01-12.99s-18.45-10.31-27-13-23.54-12.21-11.69-18.15 22.34 4.64 33.6 5.24 21.44 5.45 32.39 7.61c10.95 2.15 21.92 4.86 32.94 7.06 11.01 2.21 22.15 5.03 32.99 8.01.85-18.14 4.32-39.17 4.99-57.01S152.45 260.22 174 258c3.76-9.15-4.57-30.99 7.75-36.25 12.33-5.25 4.44-22.48 18.28-25.72 13.83-3.25 7.76-21.11 6.97-33.03s4.19-23.94 11.3-32.7 13.27-15.24 20.45-23.55c7.19-8.3 13.95-14.52 21-23 7.06-8.48 15.02-14.11 21.5-23.5 6.47-9.39 20.95-10.72 30.82-3.32s1.05 22.68-.05 34.09c-1.09 11.42-5.79 24.8-7.01 36.99-1.22 12.18-4.21 25.62-5.94 38.06s-5.13 20.8-12.32 31.68c-7.2 10.88-26.47 4.18-31.75 13.25Z"/><path fill="None" fill-opacity="0.0" stroke="#101921" stroke-opacity="1.00" stroke-width="0.3" d="M763 501h-29c-12.86-1.19-26.71 3.77-39 1s3.03-19.91 3-28c19.67 4.46 35.17-9.39 40-27 10.05 3.77 19.35 5.92 29.98 8.02 10.63 2.11 22.07 2.25 33.02 3.98s23.77.93 34.98 2.02c11.2 1.1 22.68 2.56 34 3 11.31.45 22.96 2.14 34.02 2.98s22.15-.07 31.77 5.23 21.2 6.1 32.23 5.77 28.3-3.44 27 10-1.74 21.71-3 34-1.35 22.31-3 34-1.21 23.32-2 35c-.78 11.68 12.99 14.66 22 15 3.86.15 8.17.43 12 0 15.37-6.78 9.44-28.41 13-44s2.04-35.79 5.02-51.98c2.99-16.18 2.7-34.92 5.98-51.02s-1.07-31.41-18-36c1.09-11.22-1.88-22.1 1-33s-10.92-13.33-13-20c10.55.38 21.54 1.56 30.92 6.08 9.38 4.51 19.87 6.51 30.08 4.92 10.2-1.6 18.54-5.37 27.32-9.68 8.79-4.31 16.07-7.85 24.6-12.4 8.54-4.54 16.14-8.12 24.85-12.15s15.6-8.99 25.15-11.85c9.56-2.85 14.28-9.89 25.06-11.95 10.77-2.05 11.78-16.35-.31-16.64-12.09-.28-19.72 3.74-30.65 5.69-10.92 1.95-20.19 4.23-30.8 6.2-10.6 1.97-20.66 3.89-31.15 5.85-10.49 1.97-20.54 4.17-31 6-10.45 1.83-20.77 3.63-31.05 5.95-10.27 2.33-17.86 4.17-27.34 9.66S1004.09 343.2 994 343c-3.66-.07-7.34 0-11 0-13.21-2.3-23.98 6.56-30 16-57.34 1-112.37 11.21-169 15 5.96-5.32 7.97-11.62 10.02-18.98 2.06-7.35 3.98-15.55 5.99-23.01 2.01-7.47 3.45-17.09-1.76-23.26-5.2-6.18-9.24-9.3-16.02-12.98s-12.74-5.61-20.01-7.99c-7.26-2.39-14.5-4.84-22-7-7.49-2.16-14.98-4.08-22.55-6.45s-15.83-3.46-23.6-5.4c-7.77-1.95-15.87-3.66-23.85-5.15-7.97-1.5-14.42-3.83-22.55-5.45s-15.54-3.49-24-5-19.16.45-27.67.67-17.83 2.02-26 3-17.39 2-24.93 4.07c-7.53 2.08-13.37 4.79-20.04 7.96s-12.46 6.69-18.8 10.2c-6.35 3.51-11.92 7.34-18 11-6.09 3.66-12.02 7.36-18 11s-11.79 8-17.98 11.02c-6.2 3.02-10.01 10.4-17.23 8.73-7.21-1.68-14.9-4.86-22.34-6.66-7.45-1.8-15.03-4.6-22.68-6.32-7.64-1.72-15.6-3.84-23.32-5.68-7.72-1.83-15.24-4.06-23.01-5.99s-14.77-3.09-22.66-5.34c-7.9-2.24-15.67-2.79-23.94-5.06-8.26-2.28-15.17-3.06-24-3-8.82.05-11.92-9.39-9.05-17.91 2.88-8.51-.41-17.32 1.98-27.02s-4.55-12.55-10-18c-2.87-2.87-2.02-5.65-1-9 5.28-9.07 24.55-2.37 31.75-13.25 7.19-10.88 10.59-19.24 12.32-31.68s4.72-25.88 5.94-38.06c1.22-12.19 5.92-25.57 7.01-36.99 1.1-11.41 9.92-26.69.05-34.09s-24.35-6.07-30.82 3.32c-6.48 9.39-14.44 15.02-21.5 23.5-7.05 8.48-13.81 14.7-21 23-7.18 8.31-13.34 14.79-20.45 23.55S206.21 151.08 207 163s6.86 29.78-6.97 33.03c-13.84 3.24-5.95 20.47-18.28 25.72-12.32 5.26-3.99 27.1-7.75 36.25-21.55 2.22-22.34 21.15-23.01 38.99S146.85 335.86 146 354c-10.84-2.98-21.98-5.8-32.99-8.01-11.02-2.2-21.99-4.91-32.94-7.06-10.95-2.16-21.13-7.01-32.39-7.61s-21.75-11.18-33.6-5.24 3.14 15.46 11.69 18.15 17.95 9.57 27 13 18.82 8.8 28.01 12.99c9.19 4.2 17.25 9.12 27.2 12.8 9.95 3.69 24.05 5.67 35.02 2.98-.51 11.82-2.82 26.44-3 38s-5.26 25.7 9 29c-1.06 11.47-11.17 32.03-.23 42.23s26.27 4.27 40.16 9.84 27.2-3.7 41.05-5.05c13.84-1.34 31.52 4.14 46.35 3.65s32.74 1.6 47.67 2.33 29.98 4.07 44-2c1.96 14.14 18.38 18.54 20.01 31.99 1.63 13.46 33.38 11.21 30.99-3.99 11.96-.36 21.14 6.73 33 7s17.31 8.14 28 12 21.93-5.55 32-1c-3.37 21.11 33.05 19.67 36 2 8.92 1.78 17.23 7.57 25.3 11.7 8.08 4.12 16.28 8.68 24.01 13 7.72 4.31 17.24 7.45 23.99 13 6.76 5.54 8.04 16.91 19.02 17.98 10.99 1.07 21.34 4.55 31.46 4.54s23.38 2.77 28.45-6.99 3.5-21.22 4.08-31.54c.58-10.31-1.04-21.29 1.91-32.47 2.96-11.18-10.03-13.78-13.22-21.22 8.63-.22 16.13 3.56 23.3 7.7 7.17 4.13 12.88 8.8 21.7 9.3s18.79-2.27 27.33-3.67 16.97-3.19 25.6-4.4c8.62-1.22 17.33-4.16 26.07-4.93 8.73-.77 17.8-4.95 26.78-4.22 8.97.73 15.47-11.1 5.22-12.78s-19.13-.78-29-2-19.28-1.25-29-2c-9.71-.75-18.23-2-28-2M243 209c-10.85-3.6-22.07-.63-33 1 3.74-9.18 6.04-19.9 6-30s-3.71-23.01-.08-32.08c3.64-9.07 8.2-14.79 14.33-21.67 6.13-6.89 11.36-12.19 17-19 5.65-6.8 11.57-12.13 17-19 5.43-6.88 13.09-10.78 17.5-18.5 4.41-7.71 15.53-15.69 23.94-8.44 8.42 7.24-.59 19.05-.69 28.69-.1 9.65-4.89 20.4-5.78 30.22-.89 9.83-2.9 22.16-4.22 31.78s-2.53 21.28-6.31 29.69c-3.77 8.42-7.94 16.96-17.76 18.24-9.83 1.27-22.26-1.55-27.93 9.07m4 13c4.24 1.36 10.97 4.66 13 9 4.16 8.32-2.83 20.73-1 30-2.35-2.25-5.93-2.75-8-5-1.83-.91-5.3-2.51-7-3-7.12-2.04-15.38-3-23-3h-14c-8.81 0-14.98 3.44-23 5-1.28.25-2.44 1.63-4 1-.28-8.57 1.48-16.61 2-25 2.65-8.5 18.7-10.57 26-12 12.48-2.45 27.19-.78 39 3m11 52c-16.87-11.54-37.25-15.37-57-19 10.23-2.25 25.78-1.27 35.67 1.33 9.9 2.59 23.18 4.64 21.33 17.67m522 95c-14.78 12.76-29.59 25.63-46 36-5.12-7.17-12.33-10.63-17-18 12.9-16.71.28-31.09-16.68-33.32-16.95-2.23-32.94-9.07-49.33-11.67s-36.34-11.7-53-6.02c-16.65 5.68-22.39 14.77-38.07 21.93s-20.68 20.74-23.9 37.1c-3.21 16.37-5.1 34.2-9.8 51.2-4.69 17 2.75 33.24 20.86 36.7 18.1 3.47 31.28 9.4 49.59 11.41 18.31 2 37.3 5.11 56.33 4.67 4.27 0 8.75.39 13 0 5.1-1.06 9.42-2.73 13-7 4.5-5.37 4.05-16.32 12-16-1.11 6.8-4.08 14.13-9 19-8.76 9.85-20.8 11.45-32.68 15.32s-24.84 7.21-36.54 11.46c-11.71 4.25-27.76 5.38-38.79 10.21s-26.72 4.24-30.91 17.09S514.59 564.35 517 546c4.08-.3 7.81-2.02 12-2-6-1.75-21.45-2.45-29.67-.67s-20.12 5.35-26.25-2.41c-6.12-7.77-15.03-6.46-24.09-8.91S430.15 528.35 421 526c1.23-9.22 12.63-5.95 19-8-.81-2.04-3.27-2.97-4-5-6.56 2.13-19.6.55-20.3 10.69-.71 10.15-6.9 17.6-17.7 14.31s-2.09-16.08-12-20c-4.19-2.84-10.32-5.48-10-12 9.21-4.84 22.29-5.54 29.75-14.25s3.48-27.74 5.25-38.75c0-2.85.5-6.21 0-9-4.27-13.52-27.44-3.01-36 1-1.44-14.79 11.18-22.18 24.08-26.92 12.89-4.74 19-19.8 16.92-34.08 5.41 1.69 14.71 1.15 16 8 4.87-8.41 11.03-10.71 18.25-17.75 7.22-7.05 4.24-21.71 5.75-31.25 29.96-13.81 59.27-29.47 89-44-1.39-2.17-4.3.21-6 1-28.03 13.11-55.38 28.14-83 42 2.89-7.36.92-18.55-9-18 1.66-1.56 3.78-3.08 6-4 12.01-7.99 22.58-15.16 35.25-22.75 12.66-7.6 23.32-14.92 36.98-22.02 13.66-7.11 30.05-10.82 45.99-13.01 15.94-2.18 38.42-4.48 54.78-2.22s32.54 7.47 48.22 10.78c15.69 3.3 33.06 6.96 47.8 11.2 14.75 4.23 31.71 9.45 45.2 13.8 13.5 4.34 31.73 14.19 27.79 29.23S792.25 358.43 780 369m-338-40c9.06 2.53 9.5 5.13 8.02 14.02-1.47 8.89.09 15.28-1.02 23.98-21.27.24-45.18 8.45-65 0-11.06-3.04-22.5-5.59-33.22-9.78-10.72-4.18-22.07-6.08-32.79-10.21-10.72-4.14-21.25-6.74-32.01-10.99-10.77-4.24-20.54-6-31.06-11.94-10.51-5.95-16.44-10.03-29.14-13.86s-24.49 2.5-23.71 16.85c.79 14.36-3.29 25.86-3.4 39.6S195.23 392.45 195 406s-3.88 25.73-5 39c-13.11-6.58-29.52-5.65-44-4-4.55-2.99.85-15.52 0-21s2.52-14.53 2-21 1.65-14.25 2-21 .88-14.43 1.78-21.22.14-15.02 1.22-21.78 1.24-14.23 2-21 .97-14.55 1.98-21.02c1-6.48-.59-14.86 2.8-20.2 3.38-5.35 8.89-7.25 14.22-8.78 19.31-5.54 39.64-1.42 58.22 2.78 18.59 4.19 26.65 21.18 45.78 22.22s37.76 8.23 56.22 11.78 36.3 9.28 54.46 13.54c18.16 4.27 35.37 9.67 53.32 14.68m765-15c-12.15 8-25.83 12.4-39.22 18.78-13.4 6.37-26.56 11.97-39.86 19.14-13.29 7.18-24.94 13.46-39.14 19.86-14.21 6.39-32.6 4.19-46.47-4.09-13.88-8.27-36.75 3.61-47.31-9.69 23.7-3.52 42.85-16.39 67.01-18.99s49.14-10.61 73.21-13.79 48.19-13.17 71.78-11.22m-823 65c-3.25.31-6.76.46-10 0-11.06-.42-21.52-5.13-32.02-7.98-10.51-2.85-20.51-6.97-31.05-9.95-10.55-2.97-19.26-6.78-30-10-10.75-3.21-19.4-6.78-30.61-10.39-11.21-3.62-19.91-6.43-33.34-6.66S207.42 312.5 220 314s19.6 4.92 29.69 10.31c10.1 5.38 18.52 8.51 28.99 12.01 10.46 3.51 18.97 7.22 29.39 10.61 10.43 3.39 20.36 6.84 30.95 10.05 10.6 3.2 19.21 6.6 30.2 9.8 11 3.19 22.44 6.27 34.78 6.22s26.75-.71 39-2c-1.73 5.15-9.3 6.12-12 11-14.75-8.07-30.76-2.39-47-3m-239-19c-1.48 6.45-1.14 13.37-2 20-10.3 2.6-22.98.8-32.22-2.78-9.25-3.58-17.89-7.48-26.46-11.54-8.56-4.06-16.66-8.66-25.34-11.65-8.69-3-16.97-10.24-25.21-12.8s-22.82-11.17-10.7-10.3c12.13.87 19.05 6.37 30.15 7.85s19.3 5 29.85 7.15c10.56 2.14 20.59 4.63 31 7 10.42 2.36 20.81 3.68 30.93 7.07m217 85c-6.37 1.08-13.94 1-21 1-37.39 0-74.36 5.59-112 5 .99-9.76 2.58-18.73 4.78-28.22 2.19-9.49-14.85-11.11-10.78-19.78 6.3 3.43 10.44 6.45 15.75 12.25 5.32 5.8 12.67 6.08 20.25 7.75 7.58 1.66 15.99 2.3 24.01 3.99 8.01 1.7 16.35.95 24.66 3.34s15.51.29 24.35 3.65c8.85 3.35 17.18-3.88 7.9-7.9-9.27-4.03-13.85-3.79-21.99-7.01-8.15-3.21-13.5-4.33-21.15-6.85-7.66-2.52-13.51-4.95-21-7-7.49-2.04-13.37-5.15-20.86-7.14-7.49-2-12.96-5.65-20.99-7.01s-9.64-8.46-13.68-14.32c-4.05-5.86-17.1-2.92-16.25-11.75.86-8.84 2.91-16.99 3-26 35.41 1.53 65.85 17.11 99.07 26.93 33.23 9.81 67.7 26.45 103.93 17.07 2.95 15.56-5.22 28.71-19.23 32.77S367.6 430.83 368 445h-6m637-96c.99.42 2.94.26 3 2-4.46.49-8.71 1.76-13 3 .33 3.3-1.42 6 3 8-5.49-2.78-11.93-.71-18 0 4.27-6.21-3.87-9.22-8-10 10.28-2.81 22.63-5.32 33-3m-210 30c23.85 0 47.33-4.62 71-7 23.68-2.37 47.97-3.67 72-6 6.18-.6 16.66-3.23 22 1-19.29 2.41-27.92 18.77-48.02 17.02-20.11-1.74-44.97-.4-65.98-1.02s-45.05 1.83-65-2c4.16-2.49 9.17-2.02 14-2m113 11c4.59 0 9.44.47 14 0 12.37-2.74 22.6-15.92 35-15-14.74 7.29-5.04 28.2-10 41-19.69-13.78-42.6-12.42-66-16s-48.98-7.94-73-10c32.57-2.54 66.98-.35 100 0m92-15c4.76.1 8.57.76 13 2 5.98 1.67 14.69 3.39 15 11 .3 7.61-.92 17.25-1 25-3.97-2.6-9.22-2.87-13-5-8.9-2.27-18.51-2-28-2-6.47 0-12.85-.23-19 1-4.44.89-8.93 1.85-13 4 .14-9.39-.74-19.66 2-28 3.29-6.5 17.6-7.78 24-8 6.35-.91 13.73-.76 20 0m-352 0c13 1.57 31.05 6.36 44.02 7.98C699 384.59 720.74 386.42 719 403s4.94 34.92-5.25 47.75c-10.2 12.82-27.56 5.83-41.75 3.25-14.19-2.57-31.15-.85-45.69-7.31-14.54-6.45-7.91-28.22-9.31-43.69s5.16-30.4 25-28m-63 1c2.88 1.77-2.99 12.05-5.77 15.23s-8.05 8.22-9.01 13.99c-.96 5.78-2.19 13.86-2.22 20.78s.76 13.57 2.92 20.08c2.16 6.5-3.58 12.06-3.85 18.99-.27 6.94-12.84 6.04-10.29-1.29s.87-13.99 2.22-20.78 2.83-12.84 3.98-19.02c1.15-6.19 2.99-13.55 4.01-18.99 1.03-5.43 3.67-13.78 5.32-17.68 1.64-3.9 8.53-13.87 12.69-11.31m39 2c-7.4 17.24-3.02 32.7-5 52s16.84 23.49 32.67 24.33S678.99 460.7 695 462c-4.7 13.76-19.7 8.15-31.02 6.02-11.33-2.12-26.42-2.76-38.05-4.95-11.64-2.18-25.52-.17-34.93-8.07 18.06-15.83 31.27-57.02 5-70 5.18-6.27 14.93-4.15 22-7m-400 6v13c-5.55-4.69-19.3-3.95-15-14 5.22-.56 9.72 1.72 15 1m717 36c9.71 4.59 23.53 1.57 34 1 21.72-1.18 36.1-.89 56.23 7.77s13.84 30 11.77 49.23-4.7 39.46-6.93 59.07c-2.22 19.62-3.3 41.3-6.07 60.93-6.82-4.51-15.86-3.72-23-6-3.05.08-5.33 1.72-8 3-.94-19.68 4.45-36.28 4-56s5.27-35.5 4-56-34.48-5.73-49-11-31.7-10.99-49-11-38.1-3.65-56-4-37.02-4.61-55.01-4.99c-17.98-.39-34.32-4.81-50.99-10.01-3.49-2.77-.2-10.89-1-16s-.34-11.95-2-17c14.42-7 23-22.64 40.07-18.07 17.07 4.56 35.6 5.34 52.95 9.05 17.36 3.71 37.66 3.81 54.98 7.02 17.32 3.2 34.96 2.03 49 13m-334-27c7.08 5.48 5.27 18.99 4 27-2.36 14.86-11.87 35.44-31 28 2-5.91 10.42-8.87 10-16-3.39 11.54-17.43 15.26-17.78 1.78s-.74-23.5 5.09-34.47c5.82-10.98 21.14-9.7 29.69-6.31m-282 32c-17.05 1.09-36.06-7.37-54-7s-27.26-12.86-41-22c15.33 1.37 31.05 10 47.01 13.99 15.95 4 31.68 11.92 47.99 15.01m411-17c5.07 7.61 5.73 17.76 5 27-1.42 17.84-14.61 39.09-36 33 1.85-7.65 12.87-5.26 17.25-12.75 4.38-7.5 7.31-13.85 6.75-23.25s.42-20.45 0-30c3.03.41 5.26 3.74 7 6m-516 4c16.78 5.89 12.8 17.9 10 33-4.72-1.46-9.2-3.69-14-5-3.92-.96-7.83-1.92-12-2 .28-9.76 1.33-19.32 2-29 4.8.44 9.51 1.34 14 3m776-2c10.29 0 23.88 2.11 30 10-22.68-8.54-49.47-5.35-72-3 6.86-5.65 16.95-6.67 26-7 5.04-.49 11.03-.48 16 0m-782 34c4.83 1.39 12.37 2.51 14 8-4.52-.22-8.77-1.61-13-3-4.23-1.03-8.54-1.75-13-2-.73-7.78 7.78-4.04 12-3m-21 3c-11.34 5.31-30.77 4.72-40-3 13.22-2.12 27.62-1.22 40 3m203 4c3.29 1 3.65.69 5 4 1.63 4 .37 8.22 0 12v13c0 14.34-4.6 18.45-18 17s-19.53 5.41-32 4-21.47-.86-33.22-1.78c-11.75-.91-22.47-1.09-33.78-2.22-11.31-1.12-22.28-.14-33.22-1.78s-22.22-.5-31.47 4.09c-9.26 4.58-21.29-.07-30.98-.64S162.56 494.53 154 491c18.27-5.8 38.18-1.69 56 3-.49-2.22-3.57-1.74-4-4-13.8-7.13-34.21-5.52-49-3-2.08.35-3.85.85-6 1 .94-8.84-.55-18.3 1-27s18.12-1.75 24-4c12.56-1 23.15-8.1 36.07-2.07 12.93 6.02 27.23.54 40.93 1.07 13.71.54 28.24-1.29 42-2s28.06-1.14 42-2 28.73-1 43-1c3.41-.33 6.48-1.07 10 0m275 22c-4.81 12.3-20.16 5.52-31 4-10.85-1.52-26.08-2.32-37.02-4.98-10.95-2.65-16.29-19.03-4.73-10.27 11.55 8.77 23.24 2.77 35.75 6.25s24.47 2.19 37 5m181 40c-18.45 2.93-40.28 9.13-59.02 10.98-18.75 1.84-42.64 13.44-60.21 3.25C709.21 517.04 693.29 510.5 673 510c11.29-8.72 24.43-.03 39-2s30.45-1.64 45.07-1.07c14.62.56 30.25 1.2 44.93 2.07s29.34 2.91 44 4m-199 5c-4.47 5.86-14.95 11-11 22-7.1-2.31-14.63-8.29-19-14 10.31-1.52 19.71-6.28 30-8m47 13c10.73 5.02 4.05 17.51 5 27-3.06-.9-5.68-3.01-9-3-10.01-3.04-19.07-4-30-4h-1c-2.77 0-6.3.6-9 0-2.16-.48-8.17-3.87-9-6-1.95-5.03.69-15.08 5-17 2.42-1.08 6.02-1.76 9-2 12.68-1.01 27.82-.23 39 5m-21 65c-5.26-.84-10.46-1-16-1-5 0-10-.1-15 0-3.56.07-6.65.19-10 1-3.74-16.16-23.59-19.21-36.69-27.3C582.2 560.6 566.14 553 552 547c6.79-4.57 15.87-6.71 24-9 9.23-2.88 23.06-9.54 33-8s14.61 13.47 24.08 16.92 13.93 14.26 24.99 16.01c11.07 1.74 23.05 1.21 34.01 6.99 10.95 5.79 4.63 20.64 3.92 31.08-7.47-2.32-15.26-3.55-23-5m25-30c-12.89-7.57-30.83-2.74-43-11 14.47.87 34.88-1.95 43 11m322 34c-7.39 2.02-17.33.88-23-4 7.28-1.06 16.58.41 23 4m-363-2c12.47 0 25.25.96 36 6-1.47 2.16-4.51 2.12-7 2-5.16.84-10.96.49-16 0-11.45 0-22.55-2.14-33-6 .1-3.67 5.58-1.32 8-2 3.77-.37 8.29-.36 12 0Z"/><path fill="None" fill-opacity="0.0" stroke="#222F3A" stroke-opacity="1.00" stroke-width="0.3" d="M243 209c5.67-10.62 18.1-7.8 27.93-9.07 9.82-1.28 13.99-9.82 17.76-18.24 3.78-8.41 4.99-20.07 6.31-29.69s3.33-21.95 4.22-31.78c.89-9.82 5.68-20.57 5.78-30.22.1-9.64 9.11-21.45.69-28.69-8.41-7.25-19.53.73-23.94 8.44-4.41 7.72-12.07 11.62-17.5 18.5-5.43 6.87-11.35 12.2-17 19-5.64 6.81-10.87 12.11-17 19-6.13 6.88-10.69 12.6-14.33 21.67-3.63 9.07.04 21.98.08 32.08s-2.26 20.82-6 30c10.93-1.63 22.15-4.6 33-1Z"/><path fill="None" fill-opacity="0.0" stroke="#909193" stroke-opacity="1.00" stroke-width="0.3" d="M256 220c-1.51-2.11-1.43-6.46-1-9-1.02 3.35-1.87 6.13 1 9Z"/><path fill="None" fill-opacity="0.0" stroke="#D1D7D8" stroke-opacity="1.00" stroke-width="0.3" d="M208 219c.74.1 2.59 1.91 4 1-1.75 9.37-2.44 19.07-2 29 3.82-.33 7.97.71 11 1 7.62 0 15.88.96 23 3 3.77-2.53-.78-12.72 1.33-16.67s-.47-10.72 1.67-14.33c-11.81-3.78-26.52-5.45-39-3Z"/><path fill="None" fill-opacity="0.0" stroke="#828F97" stroke-opacity="1.00" stroke-width="0.3" d="M182 231c-.38 2.82 1.27 9.53 0 13s5.22 7.78 2 11c8.02-1.56 14.19-5 23-5 .74-.16 1.74-.89 3-1-.44-9.93.25-19.63 2-29-1.41.91-3.26-.9-4-1-7.3 1.43-23.35 3.5-26 12Z"/><path fill="None" fill-opacity="0.0" stroke="#ECEBE5" stroke-opacity="1.00" stroke-width="0.3" d="M244 253c1.7.49 5.17 2.09 7 3 2.89-1.77.49-10.43 1.99-14.01 1.5-3.57-.83-11.87 2.01-14.99 1.95.43 3.91 5.19 5 4-2.03-4.34-8.76-7.64-13-9-2.14 3.61.44 10.38-1.67 14.33s2.44 14.14-1.33 16.67Z"/><path fill="None" fill-opacity="0.0" stroke="#C5C6BE" stroke-opacity="1.00" stroke-width="0.3" d="M251 256c2.07 2.25 5.65 2.75 8 5-1.83-9.27 5.16-21.68 1-30-1.09 1.19-3.05-3.57-5-4-2.84 3.12-.51 11.42-2.01 14.99-1.5 3.58.9 12.24-1.99 14.01Z"/><path fill="None" fill-opacity="0.0" stroke="#B0B8BA" stroke-opacity="1.00" stroke-width="0.3" d="M184 255c3.22-3.22-3.27-7.53-2-11s-.38-10.18 0-13c-.52 8.39-2.28 16.43-2 25 1.56.63 2.72-.75 4-1Z"/><path fill="None" fill-opacity="0.0" stroke="#6A7075" stroke-opacity="1.00" stroke-width="0.3" d="M207 250h14c-3.03-.29-7.18-1.33-11-1-1.26.11-2.26.84-3 1Z"/><path fill="None" fill-opacity="0.0" stroke="#DFDFDA" stroke-opacity="1.00" stroke-width="0.3" d="M258 274c1.85-13.03-11.43-15.08-21.33-17.67-9.89-2.6-25.44-3.58-35.67-1.33 19.75 3.63 40.13 7.46 57 19Z"/><path fill="None" fill-opacity="0.0" stroke="#F6F4EC" stroke-opacity="1.00" stroke-width="0.3" d="M453 320c31.15-13.58 59.12-42.78 95-48-1.98 7.71-3.79 15.55-3 24-2.13.67-5.93 1.22-6 4 1.7-.79 4.61-3.17 6-1-5.34 16.43 8.84 28 24 26s25.79-6.46 39-11c3.36-2.33 7.37-4.13 11-6 16.62-8.59 35.86.67 53.22 3.78 17.36 3.1 35.47 8.84 52.78 12.22 17.32 3.38 32.75 8.97 38 27 3.11 10.69 3.37 14.97 15 17 .82.14 1.1 1.04 2 1 12.25-10.57 11.07-28.95 15.01-43.99s-14.29-24.89-27.79-29.23c-13.49-4.35-30.45-9.57-45.2-13.8-14.74-4.24-32.11-7.9-47.8-11.2-15.68-3.31-31.86-8.52-48.22-10.78s-38.84.04-54.78 2.22c-15.94 2.19-32.33 5.9-45.99 13.01-13.66 7.1-24.32 14.42-36.98 22.02-12.67 7.59-23.24 14.76-35.25 22.75m136-6c-7.96 2.62-29.71 6.58-34.75-3.25-5.05-9.82-.94-28.53 4.75-36.75 8.7-12.56 20.53-3.52 35.07-8.93 14.55-5.41 21.43 12.64 15.94 24.94S602.58 309.53 589 314m196-2c8.79 4.85 7.4 18.67 5 26-2.39 7.33-2.54 22.26-12 23-5.71.45-6.71-7.81-7-12-.72-4.05-.64-8.03 0-12 .46-8.46 2.51-31.33 14-25Z"/><path fill="None" fill-opacity="0.0" stroke="#F7F5ED" stroke-opacity="1.00" stroke-width="0.3" d="M174 264c3.97-.46 10-.29 15-1-3.42 59.05-11.83 116.87-15 176-9.02 1.26-20.57-2.57-28 2 14.48-1.65 30.89-2.58 44 4 1.12-13.27 4.77-25.45 5-39s3.56-25.59 3.67-39.33 4.19-25.24 3.4-39.6c-.78-14.35 11.01-20.68 23.71-16.85s18.63 7.91 29.14 13.86c10.52 5.94 20.29 7.7 31.06 11.94 10.76 4.25 21.29 6.85 32.01 10.99 10.72 4.13 22.07 6.03 32.79 10.21 10.72 4.19 22.16 6.74 33.22 9.78 10.87-1.22 18.63-15.43 28.25-19.75 9.62-4.33 18.73-18.14 29.75-18.25-17.95-5.01-35.16-10.41-53.32-14.68-18.16-4.26-36-9.99-54.46-13.54S297.13 290.04 278 289s-27.19-18.03-45.78-22.22c-18.58-4.2-38.91-8.32-58.22-2.78m193 72c-.13 4.9.64 10.52 0 16-14.45-2.67-27.87-9.04-42-13 1.55-4.77 1.26-10.01 2-15 .72-4.53 1.3-9.41 2-14 13.49 3.4 26.51 8.39 40 12-2.73 4.04.79 10.38-2 14Z"/><path fill="None" fill-opacity="0.0" stroke="#DBDAD1" stroke-opacity="1.00" stroke-width="0.3" d="M174 264c-5.33 1.53-10.84 3.43-14.22 8.78-3.39 5.34-1.8 13.72-2.8 20.2-1.01 6.47-1.22 14.25-1.98 21.02s-.92 14.24-2 21-.32 14.99-1.22 21.78-1.43 14.47-1.78 21.22-2.52 14.53-2 21-2.85 15.52-2 21-4.55 18.01 0 21c7.43-4.57 18.98-.74 28-2 3.17-59.13 11.58-116.95 15-176-5 .71-11.03.54-15 1Z"/><path fill="None" fill-opacity="0.0" stroke="#959898" stroke-opacity="1.00" stroke-width="0.3" d="M559 274c7.81-5.7 19.1-1.31 29-3s12.84 12.56 10.22 20.22-1.04 17.97-9.22 22.78c13.58-4.47 15.52-11.69 21.01-23.99s-1.39-30.35-15.94-24.94c-14.54 5.41-26.37-3.63-35.07 8.93Z"/><path fill="None" fill-opacity="0.0" stroke="#13191F" stroke-opacity="1.00" stroke-width="0.3" d="M559 274c-5.69 8.22-9.8 26.93-4.75 36.75 5.04 9.83 26.79 5.87 34.75 3.25 8.18-4.81 6.6-15.12 9.22-22.78S597.9 269.31 588 271s-21.19-2.7-29 3Z"/><path fill="None" fill-opacity="0.0" stroke="#D9D8CF" stroke-opacity="1.00" stroke-width="0.3" d="M453 320c-2.22.92-4.34 2.44-6 4 9.92-.55 11.89 10.64 9 18 27.62-13.86 54.97-28.89 83-42 .07-2.78 3.87-3.33 6-4-.79-8.45 1.02-16.29 3-24-35.88 5.22-63.85 34.42-95 48Z"/><path fill="None" fill-opacity="0.0" stroke="#D9D7CE" stroke-opacity="1.00" stroke-width="0.3" d="M411 444c1.04 3.3.3 5.95 0 9-1.77 11.01 2.21 30.04-5.25 38.75S385.21 501.16 376 506c-.32 6.52 5.81 9.16 10 12 1.35-.01 9.63-6.05 14.69-7.31 5.07-1.26 11.5-5.3 16.99-7.01 5.49-1.72 11.94-4.83 17.02-7.98 5.07-3.16 9.5-6.58 15.38-8.62 5.87-2.05 11.8-4.7 18.14-5.86 6.35-1.16 12.94-3.58 18.78-6.22 4.27-1.93 16.21-8.87 17-5-.12-.6 1.56 2.35 1 2 2.93-.75 1.78-.52 4 1 3.06 2.1 1.47 2.4 6 0 .56 2.69 5 7.7 7 7-15.75-12.31-4.18-36.5-2.01-53.01 2.17-16.5 7.42-38.55 12.32-54.68 4.89-16.13 21.52-24.07 34.94-32.06 13.41-7.99 27.94-17.37 40.75-26.25-13.21 4.54-23.84 9-39 11s-29.34-9.57-24-26c-29.73 14.53-59.04 30.19-89 44-1.51 9.54 1.47 24.2-5.75 31.25-7.22 7.04-13.38 9.34-18.25 17.75-1.29-6.85-10.59-6.31-16-8 2.08 14.28-4.03 29.34-16.92 34.08-12.9 4.74-25.52 12.13-24.08 26.92 8.56-4.01 31.73-14.52 36-1m77-73c2.86 1.08 5 2.27 4 5-.66 1.79-2.77 3.01-4 4-1.86 1.5-4.27 1.85-6 3-3.06 2.04-6.66 7.62-11.08 8.92-4.43 1.3-7.25 7.46-11.67 8.33-4.41.88-8.16 8.44-12.25 8.75-6.54.49-10.36-12.93-14-16 5.56 1.76 6.85 10.64 13 12-1.49-2.33-3.74-4.53-6-6 10.84-12.46 26.85-22.45 42-29 2.49-.22 4.16.31 6 1m-12 101c-.83 6.53-14.69 8.11-18.68 10.32-3.99 2.22-17.39 9.45-19.32 1.68-2.05-8.25 14.47-9.48 18.23-13.77s21.11-8.75 19.77 1.77Z"/><path fill="None" fill-opacity="0.0" stroke="#BBBCB1" stroke-opacity="1.00" stroke-width="0.3" d="M619 308c-19.54 15.43-34.3 28.78-57.7 39.3-23.39 10.52-33.03 39.11-35.29 62.71-2.27 23.59-22.01 58.7 5.07 71.91 27.07 13.22 48.64 16.63 77.92 20.08 9.67 1.14 20.65 2.1 30 3 5.25-.65 10.73.49 16 0-5.09 2.27-12.16.38-18 1-9.84-.67-20.67-2.1-30-3-14.84 1.83-32.03-5.36-46.01-7.99-13.98-2.64-26.24-9.05-38.99-15.01-2 .7-6.44-4.31-7-7-4.53 2.4-2.94 2.1-6 0 2.43 6.95-7.49 6.28-10 3 1.09-2.4 4-2.67 6-4 .56.35-1.12-2.6-1-2-1.94-.55-4.46 1.78-6.23 2.77s-5.08-.06-6.46 2.54c-1.39 2.59-6.51-.08-4.31-.31-5.84 2.64-12.43 5.06-18.78 6.22-6.34 1.16-12.27 3.81-18.14 5.86-5.88 2.04-10.31 5.46-15.38 8.62-5.08 3.15-11.53 6.26-17.02 7.98-5.49 1.71-11.92 5.75-16.99 7.01-5.06 1.26-13.34 7.3-14.69 7.31 9.91 3.92 1.2 16.71 12 20s16.99-4.16 17.7-14.31c.7-10.14 13.74-8.56 20.3-10.69.73 2.03 3.19 2.96 4 5-6.37 2.05-17.77-1.22-19 8 9.15 2.35 18.93 3.56 27.99 6.01s17.97 1.14 24.09 8.91c6.13 7.76 18.03 4.19 26.25 2.41S523 542.25 529 544c-4.19-.02-7.92 1.7-12 2-2.41 18.35 21.89 15.93 26.08 3.08s19.88-12.26 30.91-17.09 27.08-5.96 38.79-10.21c11.7-4.25 24.66-7.59 36.54-11.46S673.24 504.85 682 495c-1.48 1.01-3.24 1.78-5 2-1.07-2.2 4.15-3.65 2-5-3.58 4.27-7.9 5.94-13 7-4.32.9-8.84.4-13 0-19.03.44-38.02-2.67-56.33-4.67-18.31-2.01-31.49-7.94-49.59-11.41-18.11-3.46-25.55-19.7-20.86-36.7 4.7-17 6.59-34.83 9.8-51.2 3.22-16.36 8.22-29.94 23.9-37.1s21.42-16.25 38.07-21.93c16.66-5.68 36.61 3.42 53 6.02s32.38 9.44 49.33 11.67c16.96 2.23 29.58 16.61 16.68 33.32 4.67 7.37 11.88 10.83 17 18 16.41-10.37 31.22-23.24 46-36-.9.04-1.18-.86-2-1-4.8.03-9.32 1.87-12.3-3.7s-2.07-8.49-2.7-13.3c-5.25-18.03-20.68-23.62-38-27-17.31-3.38-35.42-9.12-52.78-12.22-17.36-3.11-36.6-12.37-53.22-3.78M512 498c-7.47 2.15-14.73 7.84-22.08 9.92-7.35 2.09-15.77 9.72-21.92 7.08 14.58-5.19 29.67-15.44 44-17m42 9c-6.56 2.13-13.87 6.18-20.69 8.31-6.83 2.12-14.92 8.85-21.31 4.69 14.42-1.94 28.3-12.95 42-13m38 6c-16.49 5.69-33.35 19.61-51 18 17.67-3.48 33.54-16.43 51-18m-95 15c-7.42 3.43-23.31 2.79-28-5 9.57.66 19.01 2.12 28 5Z"/><path fill="None" fill-opacity="0.0" stroke="#1A1E23" stroke-opacity="1.00" stroke-width="0.3" d="M608 314c-12.81 8.88-27.34 18.26-40.75 26.25-13.42 7.99-30.05 15.93-34.94 32.06-4.9 16.13-10.15 38.18-12.32 54.68-2.17 16.51-13.74 40.7 2.01 53.01 12.75 5.96 25.01 12.37 38.99 15.01 13.98 2.63 31.17 9.82 46.01 7.99.53-.07 1.98-1 2-1-29.28-3.45-50.85-6.86-77.92-20.08-27.08-13.21-7.34-48.32-5.07-71.91 2.26-23.6 11.9-52.19 35.29-62.71 23.4-10.52 38.16-23.87 57.7-39.3-3.63 1.87-7.64 3.67-11 6Z"/><path fill="None" fill-opacity="0.0" stroke="#085B94" stroke-opacity="1.00" stroke-width="0.3" d="M327 324c5.63 2.53 14.84 2.77 20.02 5.98 5.19 3.2 16.06 1.98 19.98 6.02 2.79-3.62-.73-9.96 2-14-13.49-3.61-26.51-8.6-40-12-.7 4.59-1.28 9.47-2 14Z"/><path fill="None" fill-opacity="0.0" stroke="#111A22" stroke-opacity="1.00" stroke-width="0.3" d="M771 337c-.21 3.9-.27 8.1 0 12 .29 4.19 1.29 12.45 7 12 2.88-.83 4.14-8.25 4.78-11.22.63-2.97 3.43-10.42 3.2-13.8-.24-3.39 4.24-10.36-.91-13.05-5.14-2.7.64-8.64-.07-10.93-11.49-6.33-13.54 16.54-14 25Z"/><path fill="None" fill-opacity="0.0" stroke="#969999" stroke-opacity="1.00" stroke-width="0.3" d="M778 361c9.46-.74 9.61-15.67 12-23 2.4-7.33 3.79-21.15-5-26 .71 2.29-5.07 8.23.07 10.93 5.15 2.69.67 9.66.91 13.05.23 3.38-2.57 10.83-3.2 13.8-.64 2.97-1.9 10.39-4.78 11.22Z"/><path fill="None" fill-opacity="0.0" stroke="#212E39" stroke-opacity="1.00" stroke-width="0.3" d="M1207 314c-23.59-1.95-47.71 8.04-71.78 11.22s-49.05 11.19-73.21 13.79S1018.7 354.48 995 358c10.56 13.3 33.43 1.42 47.31 9.69 13.87 8.28 32.26 10.48 46.47 4.09 14.2-6.4 25.85-12.68 39.14-19.86 13.3-7.17 26.46-12.77 39.86-19.14 13.39-6.38 27.07-10.78 39.22-18.78Z"/><path fill="None" fill-opacity="0.0" stroke="#BCBCB2" stroke-opacity="1.00" stroke-width="0.3" d="M374 379c3.32.13 6.68 0 10 0 16.24.61 32.25-5.07 47 3 2.7-4.88 10.27-5.85 12-11-12.25 1.29-26.66 1.95-39 2s-23.78-3.03-34.78-6.22c-10.99-3.2-19.6-6.6-30.2-9.8-10.59-3.21-20.52-6.66-30.95-10.05-10.42-3.39-18.93-7.1-29.39-10.61-10.47-3.5-18.89-6.63-28.99-12.01-10.09-5.39-17.11-8.81-29.69-10.31s-16.45 19.79-3.02 20.02 22.13 3.04 33.34 6.66c11.21 3.61 19.86 7.18 30.61 10.39 10.74 3.22 19.45 7.03 30 10 10.54 2.98 20.54 7.1 31.05 9.95 10.5 2.85 20.96 7.56 32.02 7.98Z"/><path fill="None" fill-opacity="0.0" stroke="#EECD52" stroke-opacity="1.00" stroke-width="0.3" d="M367 336c-3.92-4.04-14.79-2.82-19.98-6.02-5.18-3.21-14.39-3.45-20.02-5.98-.74 4.99-.45 10.23-2 15 14.13 3.96 27.55 10.33 42 13 .64-5.48-.13-11.1 0-16Z"/><path fill="None" fill-opacity="0.0" stroke="#CECDC4" stroke-opacity="1.00" stroke-width="0.3" d="M384 367c19.82 8.45 43.73.24 65 0 1.11-8.7-.45-15.09 1.02-23.98 1.48-8.89 1.04-11.49-8.02-14.02-11.02.11-20.13 13.92-29.75 18.25-9.62 4.32-17.38 18.53-28.25 19.75Z"/><path fill="None" fill-opacity="0.0" stroke="#222F39" stroke-opacity="1.00" stroke-width="0.3" d="M145 360c-10.12-3.39-20.51-4.71-30.93-7.07-10.41-2.37-20.44-4.86-31-7-10.55-2.15-18.75-5.67-29.85-7.15s-18.02-6.98-30.15-7.85c-12.12-.87 2.46 7.74 10.7 10.3s16.52 9.8 25.21 12.8c8.68 2.99 16.78 7.59 25.34 11.65 8.57 4.06 17.21 7.96 26.46 11.54 9.24 3.58 21.92 5.38 32.22 2.78.86-6.63.52-13.55 2-20Z"/><path fill="None" fill-opacity="0.0" stroke="#727679" stroke-opacity="1.00" stroke-width="0.3" d="M771 349c-.27-3.9-.21-8.1 0-12-.64 3.97-.72 7.95 0 12Z"/><path fill="None" fill-opacity="0.0" stroke="#FCFCFC" stroke-opacity="1.00" stroke-width="0.3" d="M341 446c6.32-.61 14.05-.58 21-1h6c-.4-14.17 8.76-25.17 22.77-29.23S412.95 398.56 410 383c-36.23 9.38-70.7-7.26-103.93-17.07-33.22-9.82-63.66-25.4-99.07-26.93-.09 9.01-2.14 17.16-3 26-.85 8.83 12.2 5.89 16.25 11.75 4.04 5.86 5.65 12.96 13.68 14.32s13.5 5.01 20.99 7.01c7.49 1.99 13.37 5.1 20.86 7.14 7.49 2.05 13.34 4.48 21 7 7.65 2.52 13 3.64 21.15 6.85 8.14 3.22 12.72 2.98 21.99 7.01 9.28 4.02.95 11.25-7.9 7.9-8.84-3.36-16.04-1.26-24.35-3.65s-16.65-1.64-24.66-3.34c-8.02-1.69-16.43-2.33-24.01-3.99-7.58-1.67-14.93-1.95-20.25-7.75-5.31-5.8-9.45-8.82-15.75-12.25-4.07 8.67 12.97 10.29 10.78 19.78-2.2 9.49-3.79 18.46-4.78 28.22 37.64.59 74.61-5 112-5Z"/><path fill="None" fill-opacity="0.0" stroke="#707378" stroke-opacity="1.00" stroke-width="0.3" d="M983 343c3.66 0 7.34-.07 11 0-3.48-.42-7.49-.34-11 0Z"/><path fill="None" fill-opacity="0.0" stroke="#23303A" stroke-opacity="1.00" stroke-width="0.3" d="M989 354c-.11-1.13-1.67-3.5-2-5h12c-10.37-2.32-22.72.19-33 3 4.13.78 12.27 3.79 8 10 6.07-.71 12.51-2.78 18 0-4.42-2-2.67-4.7-3-8Z"/><path fill="None" fill-opacity="0.0" stroke="#424D55" stroke-opacity="1.00" stroke-width="0.3" d="M989 354c4.29-1.24 8.54-2.51 13-3-.06-1.74-2.01-1.58-3-2h-12c.33 1.5 1.89 3.87 2 5Z"/><path fill="None" fill-opacity="0.0" stroke="#323435" stroke-opacity="1.00" stroke-width="0.3" d="M778 368c-11.63-2.03-11.89-6.31-15-17 .63 4.81-.28 7.73 2.7 13.3s7.5 3.73 12.3 3.7Z"/><path fill="None" fill-opacity="0.0" stroke="#23303A" stroke-opacity="1.00" stroke-width="0.3" d="M932 366c-8.37 2.24-20.75 3.93-32 6-11.26 2.06-23.86 3.69-36 4s-25.75 1.42-38 2-25.46 2.12-37 1c-4.83-.02-9.84-.49-14 2 19.95 3.83 43.99 1.38 65 2s45.87-.72 65.98 1.02c20.1 1.75 28.73-14.61 48.02-17.02-5.34-4.23-15.82-1.6-22-1Z"/><path fill="None" fill-opacity="0.0" stroke="#424C55" stroke-opacity="1.00" stroke-width="0.3" d="M789 379c11.54 1.12 24.75-.42 37-1s25.86-1.69 38-2 24.74-1.94 36-4c11.25-2.07 23.63-3.76 32-6-24.03 2.33-48.32 3.63-72 6-23.67 2.38-47.15 7-71 7Z"/><path fill="None" fill-opacity="0.0" stroke="#B5B6AC" stroke-opacity="1.00" stroke-width="0.3" d="M446 405c.91 1.43 2.38 2.38 1 4 4.09-.31 7.84-7.87 12.25-8.75 4.42-.87 7.24-7.03 11.67-8.33 4.42-1.3 8.02-6.88 11.08-8.92-2.06.02-4.07-1.4-6-2 .67-1.2 1.64-2.58 3-3 .22-.78-.29-6.99 3-8-15.15 6.55-31.16 16.54-42 29 2.26 1.47 4.51 3.67 6 6Z"/><path fill="None" fill-opacity="0.0" stroke="#939891" stroke-opacity="1.00" stroke-width="0.3" d="M479 378c4.35-2.06 5.34 2.39 9 2 1.23-.99 3.34-2.21 4-4 .01-.4-3.47-4.68-4-5-1.84-.69-3.51-1.22-6-1-3.29 1.01-2.78 7.22-3 8Z"/><path fill="None" fill-opacity="0.0" stroke="#191D21" stroke-opacity="1.00" stroke-width="0.3" d="M492 376c1-2.73-1.14-3.92-4-5 .53.32 4.01 4.6 4 5Z"/><path fill="None" fill-opacity="0.0" stroke="#F7F7F7" stroke-opacity="1.00" stroke-width="0.3" d="M916 390c-4.62 1.02-9.54.43-14 0-33.02-.35-67.43-2.54-100 0 24.02 2.06 49.6 6.42 73 10s46.31 2.22 66 16c4.96-12.8-4.74-33.71 10-41-12.4-.92-22.63 12.26-35 15Z"/><path fill="None" fill-opacity="0.0" stroke="#6C7174" stroke-opacity="1.00" stroke-width="0.3" d="M974 375c2.33-.08 4.67 0 7 0 4.33 0 8.67-.09 13 0-6.27-.76-13.65-.91-20 0Z"/><path fill="None" fill-opacity="0.0" stroke="#4A555C" stroke-opacity="1.00" stroke-width="0.3" d="M642 375c-19.84-2.4-26.4 12.53-25 28s-5.23 37.24 9.31 43.69c14.54 6.46 31.5 4.74 45.69 7.31 14.19 2.58 31.55 9.57 41.75-3.25 10.19-12.83 3.51-31.17 5.25-47.75s-20-18.41-32.98-20.02C673.05 381.36 655 376.57 642 375m68 17c6.77 4.84 4.75 14.09 5 22s.79 18.99-2 26c-4.6 11.58-14.78 12.75-26 10s-23.84-2.01-34.22-4.78-25.49 3.26-29.7-9.3c-4.22-12.55 4.83-23.63.92-36.92s7.09-22.37 19.02-18.02c11.94 4.34 22.99.9 33.99 5.01 11 4.12 23.48-.79 32.99 6.01Z"/><path fill="None" fill-opacity="0.0" stroke="#94A0A5" stroke-opacity="1.00" stroke-width="0.3" d="M950 383c-2.5 6.06 1.88 17.7 0 25 3.83 1.15 7.9-3.96 11-1 6.15-1.23 12.53-1 19-1-2.26-1.5 1.13-12.68.33-15.67s4.74-12.7.67-15.33c-2.33 0-4.67-.08-7 0-6.4.22-20.71 1.5-24 8Z"/><path fill="None" fill-opacity="0.0" stroke="#DFE1DF" stroke-opacity="1.00" stroke-width="0.3" d="M980 406c9.49 0 19.1-.27 28 2-2.04-7.7-.55-21.08-1-31-4.43-1.24-8.24-1.9-13-2-4.33-.09-8.67 0-13 0 4.07 2.63-1.47 12.34-.67 15.33S977.74 404.5 980 406Z"/><path fill="None" fill-opacity="0.0" stroke="#222F3A" stroke-opacity="1.00" stroke-width="0.3" d="M579 376c-4.16-2.56-11.05 7.41-12.69 11.31-1.65 3.9-4.29 12.25-5.32 17.68-1.02 5.44-2.86 12.8-4.01 18.99-1.15 6.18-2.63 12.23-3.98 19.02s.33 13.45-2.22 20.78 10.02 8.23 10.29 1.29c.27-6.93 6.01-12.49 3.85-18.99-2.16-6.51-2.95-13.16-2.92-20.08s1.26-15 2.22-20.78c.96-5.77 6.23-10.81 9.01-13.99s8.65-13.46 5.77-15.23Z"/><path fill="None" fill-opacity="0.0" stroke="#151B22" stroke-opacity="1.00" stroke-width="0.3" d="M479 378c-1.36.42-2.33 1.8-3 3 1.93.6 3.94 2.02 6 2 1.73-1.15 4.14-1.5 6-3-3.66.39-4.65-4.06-9-2Z"/><path fill="None" fill-opacity="0.0" stroke="#9AA1A4" stroke-opacity="1.00" stroke-width="0.3" d="M1008 408c3.78 2.13 9.03 2.4 13 5 .08-7.75 1.3-17.39 1-25-.31-7.61-9.02-9.33-15-11 .45 9.92-1.04 23.3 1 31Z"/><path fill="None" fill-opacity="0.0" stroke="#23303B" stroke-opacity="1.00" stroke-width="0.3" d="M618 378c-7.07 2.85-16.82.73-22 7 26.27 12.98 13.06 54.17-5 70 9.41 7.9 23.29 5.89 34.93 8.07 11.63 2.19 26.72 2.83 38.05 4.95 11.32 2.13 26.32 7.74 31.02-6.02-16.01-1.3-33.5-6.83-49.33-7.67S611.02 449.3 613 430s-2.4-34.76 5-52Z"/><path fill="None" fill-opacity="0.0" stroke="#626767" stroke-opacity="1.00" stroke-width="0.3" d="M384 379c-3.32 0-6.68.13-10 0 3.24.46 6.75.31 10 0Z"/><path fill="None" fill-opacity="0.0" stroke="#0D171F" stroke-opacity="1.00" stroke-width="0.3" d="M713 440c2.35-15.38-.02-34.66-3-48-9.51-6.8-21.99-1.89-32.99-6.01-11-4.11-22.05-.67-33.99-5.01-11.93-4.35-22.93 4.73-19.02 18.02s-5.14 24.37-.92 36.92c4.21 12.56 19.32 6.53 29.7 9.3s23 2.03 34.22 4.78 21.4 1.58 26-10m-68-55c18.77 1.82 30.21 5.65 50.01 7.99s15.61 23.96 14 42.02c-1.61 18.05-29.23 11.29-42.68 8.66s-42.48.37-39.33-18.67-7.75-42.49 18-40Z"/><path fill="None" fill-opacity="0.0" stroke="#222F3A" stroke-opacity="1.00" stroke-width="0.3" d="M218 384c-5.28.72-9.78-1.56-15-1-4.3 10.05 9.45 9.31 15 14z"/><path fill="None" fill-opacity="0.0" stroke="#B5BBBD" stroke-opacity="1.00" stroke-width="0.3" d="M961 407c-3.1-2.96-7.17 2.15-11 1 1.88-7.3-2.5-18.94 0-25-2.74 8.34-1.86 18.61-2 28 4.07-2.15 8.56-3.11 13-4Z"/><path fill="None" fill-opacity="0.0" stroke="#26343D" stroke-opacity="1.00" stroke-width="0.3" d="M645 385c-25.75-2.49-14.85 20.96-18 40s25.88 16.04 39.33 18.67 41.07 9.39 42.68-8.66c1.61-18.06 5.8-39.68-14-42.02S663.77 386.82 645 385m12 4c15.65 1.52 37.19.33 44.32 16.68 7.14 16.35-1.16 41.57-19.39 37.39-18.24-4.17-37.47 1.71-45.23-15.76-7.77-17.48.71-40.21 20.3-38.31Z"/><path fill="None" fill-opacity="0.0" stroke="#111A20" stroke-opacity="1.00" stroke-width="0.3" d="M657 389c-19.59-1.9-28.07 20.83-20.3 38.31 7.76 17.47 26.99 11.59 45.23 15.76 18.23 4.18 26.53-21.04 19.39-37.39-7.13-16.35-28.67-15.16-44.32-16.68m21 32c-.76 4.26-3.6 6.16-7 8-12.08 6.52-23.96-5.29-16.23-17.23 7.73-11.93 25.77-4.95 23.23 9.23Z"/><path fill="None" fill-opacity="0.0" stroke="#F8F6EE" stroke-opacity="1.00" stroke-width="0.3" d="M741 442c-.23-3.17.05-6.12 1-9 16.67 5.21 32.93 8.56 50.67 10.33s39.58 3.75 57.33 4.67 39.88 5.3 57 4 21.17-21.83 28-32c-14.04-10.97-31.68-9.8-49-13-17.32-3.21-37.62-3.31-54.98-7.02-17.35-3.71-35.88-4.49-52.95-9.05C761 386.36 752.42 402 738 409c1.66 5.05 1.2 11.89 2 17s-2.49 13.23 1 16Z"/><path fill="None" fill-opacity="0.0" stroke="#8F9093" stroke-opacity="1.00" stroke-width="0.3" d="M916 390c-4.56.47-9.41 0-14 0 4.46.43 9.38 1.02 14 0Z"/><path fill="None" fill-opacity="0.0" stroke="#23303B" stroke-opacity="1.00" stroke-width="0.3" d="M605 420c-2.52 4.29-20.38 4.28-18-4s-2.12-15.47-3-23h17c-8.55-3.39-23.87-4.67-29.69 6.31-5.83 10.97-5.44 20.99-5.09 34.47s14.39 9.76 17.78-1.78c.42 7.13-8 10.09-10 16 19.13 7.44 28.64-13.14 31-28Z"/><path fill="None" fill-opacity="0.0" stroke="#2B3740" stroke-opacity="1.00" stroke-width="0.3" d="M713 440c2.79-7.01 2.25-18.09 2-26s1.77-17.16-5-22c2.98 13.34 5.35 32.62 3 48Z"/><path fill="None" fill-opacity="0.0" stroke="#202429" stroke-opacity="1.00" stroke-width="0.3" d="M447 409c1.38-1.62-.09-2.57-1-4-6.15-1.36-7.44-10.24-13-12 3.64 3.07 7.46 16.49 14 16Z"/><path fill="None" fill-opacity="0.0" stroke="#3A464F" stroke-opacity="1.00" stroke-width="0.3" d="M605 420c1.27-8.01 3.08-21.52-4-27h-17c.88 7.53 5.38 14.72 3 23s15.48 8.29 18 4Z"/><path fill="None" fill-opacity="0.0" stroke="#212E39" stroke-opacity="1.00" stroke-width="0.3" d="M319 425c-16.31-3.09-32.04-11.01-47.99-15.01C255.05 406 239.33 397.37 224 396c13.74 9.14 23.06 22.37 41 22s36.95 8.09 54 7Z"/><path fill="None" fill-opacity="0.0" stroke="#23303A" stroke-opacity="1.00" stroke-width="0.3" d="M735 435c-1.63 2.5-8.57 1.07-11 2v-34c2.41 1.11 3.62 3.96 6 5-1.74-2.26-3.97-5.59-7-6 .42 9.55-.56 20.6 0 30s-2.37 15.75-6.75 23.25c-4.38 7.49-15.4 5.1-17.25 12.75 21.39 6.09 34.58-15.16 36-33Z"/><path fill="None" fill-opacity="0.0" stroke="#3E4A52" stroke-opacity="1.00" stroke-width="0.3" d="M735 435c.73-9.24.07-19.39-5-27-2.38-1.04-3.59-3.89-6-5v34c2.43-.93 9.37.5 11-2Z"/><path fill="None" fill-opacity="0.0" stroke="#192F34" stroke-opacity="1.00" stroke-width="0.3" d="M671 429c-10.63 3.78-22.04-6.15-14.69-16.69 7.34-10.55 21.69-1.37 21.69 8.69 2.54-14.18-15.5-21.16-23.23-9.23-7.73 11.94 4.15 23.75 16.23 17.23Z"/><path fill="None" fill-opacity="0.0" stroke="#2B4C4E" stroke-opacity="1.00" stroke-width="0.3" d="M671 429c3.4-1.84 6.24-3.74 7-8 0-10.06-14.35-19.24-21.69-8.69-7.35 10.54 4.06 20.47 14.69 16.69m-6-18c5.07.75 5.74 9.29-.23 8.21s-6.67-9.23.23-8.21Z"/><path fill="None" fill-opacity="0.0" stroke="#E7E6E0" stroke-opacity="1.00" stroke-width="0.3" d="M210 440c-.44-4.33.6-11.12 1-15s-1.05-11.7 3-13c-4.49-1.66-9.2-2.56-14-3-.67 9.68-1.72 19.24-2 29 4.17.08 8.08 1.04 12 2Z"/><path fill="None" fill-opacity="0.0" stroke="#5C5E61" stroke-opacity="1.00" stroke-width="0.3" d="M974 410h16c-4.97-.48-10.96-.49-16 0Z"/><path fill="None" fill-opacity="0.0" stroke="#CCCFCC" stroke-opacity="1.00" stroke-width="0.3" d="M990 410h-16c-9.05.33-19.14 1.35-26 7 22.53-2.35 49.32-5.54 72 3-6.12-7.89-19.71-10-30-10Z"/><path fill="None" fill-opacity="0.0" stroke="#4A6E6B" stroke-opacity="1.00" stroke-width="0.3" d="M665 411c-6.9-1.02-6.2 7.13-.23 8.21s5.3-7.46.23-8.21Z"/><path fill="None" fill-opacity="0.0" stroke="#9BA2A5" stroke-opacity="1.00" stroke-width="0.3" d="M210 440c4.8 1.31 9.28 3.54 14 5 2.8-15.1 6.78-27.11-10-33-4.05 1.3-2.6 9.12-3 13s-1.44 10.67-1 15Z"/><path fill="None" fill-opacity="0.0" stroke="#C2C2B8" stroke-opacity="1.00" stroke-width="0.3" d="M741 442c16.67 5.2 33.01 9.62 50.99 10.01 17.99.38 37.11 4.64 55.01 4.99s38.7 3.99 56 4 34.48 5.73 49 11 47.73-9.5 49 11-4.45 36.28-4 56-4.94 36.32-4 56c2.67-1.28 4.95-2.92 8-3 3.83-4.22.04-13.33 1.98-19.02 1.93-5.69-1.29-14.98 1-21 2.28-6.03-.51-14.69 1.02-20.98s1.9-12.3 2-19 1.83-13.26 2-20c.17-6.75 2.09-12.92 1-19-.02 1 .41 2.73-1 3-.37-18.04-23.62-14.15-35-19-1.28-.43-3.09-1.69-5-1-.05-11.25 4.46-25.17 0-35-10.47.57-24.29 3.59-34-1-6.83 10.17-10.88 30.7-28 32s-39.25-3.08-57-4-39.59-2.9-57.33-4.67-34-5.12-50.67-10.33c-.95 2.88-1.23 5.83-1 9Z"/><path fill="None" fill-opacity="0.0" stroke="#F7F6EE" stroke-opacity="1.00" stroke-width="0.3" d="M969 421c4.46 9.83-.05 23.75 0 35 1.91-.69 3.72.57 5 1 15.3 2.59 32.51-3.47 36 16 1.09 6.08-.83 12.25-1 19-.17 6.74-1.9 13.3-2 20s-.47 12.71-2 19 1.26 14.95-1.02 20.98c-2.29 6.02.93 15.31-1 21-1.94 5.69 1.85 14.8-1.98 19.02 7.14 2.28 16.18 1.49 23 6 2.77-19.63 3.85-41.31 6.07-60.93 2.23-19.61 4.86-39.84 6.93-59.07s8.36-40.57-11.77-49.23-34.51-8.95-56.23-7.77Z"/><path fill="None" fill-opacity="0.0" stroke="#E3E3DF" stroke-opacity="1.00" stroke-width="0.3" d="M209 449c.02-1.64.19-3.71-1-5-4.22-1.04-12.73-4.78-12 3 4.46.25 8.77.97 13 2Z"/><path fill="None" fill-opacity="0.0" stroke="#C1C2B8" stroke-opacity="1.00" stroke-width="0.3" d="M187 447c-12.38-4.22-26.78-5.12-40-3 9.23 7.72 28.66 8.31 40 3Z"/><path fill="None" fill-opacity="0.0" stroke="#A9B0AF" stroke-opacity="1.00" stroke-width="0.3" d="M209 449c4.23 1.39 8.48 2.78 13 3-1.63-5.49-9.17-6.61-14-8 1.19 1.29 1.02 3.36 1 5Z"/><path fill="None" fill-opacity="0.0" stroke="#787977" stroke-opacity="1.00" stroke-width="0.3" d="M411 453c.3-3.05 1.04-5.7 0-9 .5 2.79 0 6.15 0 9Z"/><path fill="None" fill-opacity="0.0" stroke="#6E7173" stroke-opacity="1.00" stroke-width="0.3" d="M341 446c7.06 0 14.63.08 21-1-6.95.42-14.68.39-21 1Z"/><path fill="None" fill-opacity="0.0" stroke="#808281" stroke-opacity="1.00" stroke-width="0.3" d="M380 451c3.18 0 6.87-.53 10 0-3.52-1.07-6.59-.33-10 0Z"/><path fill="None" fill-opacity="0.0" stroke="#F7F6EE" stroke-opacity="1.00" stroke-width="0.3" d="M176 457c-.77 8.96-1.78 17.88-2 27-5.47.66-14.15-1.86-17 3 14.79-2.52 35.2-4.13 49 3 2.85-.35 12.6-3.14 20-2s17.33-.65 25 0 15.11 1.17 23 1 15.17 1.85 23.02 1.98c7.86.12 15.12.55 22.98 1.02s15.92.86 24 1 16.86-.1 25 0c4.07-12.71 5.47-27.42 3-41 5.52 2.18 19.32-4.23 21.92 3.08S391.31 473.31 395 480v-13c0-3.62.88-8.51 0-12-1.35-3.31-1.71-3-5-4-3.13-.53-6.82 0-10 0-14.27 0-29.06.14-43 1s-28.24 1.29-42 2-28.29 2.54-42 2c-13.7-.53-28 4.95-40.93-1.07C199.15 448.9 188.56 456 176 457Z"/><path fill="None" fill-opacity="0.0" stroke="#C2C2B8" stroke-opacity="1.00" stroke-width="0.3" d="M206 490c.43 2.26 3.51 1.78 4 4-17.82-4.69-37.73-8.8-56-3 8.56 3.53 18.64 7.1 28.33 7.67s21.72 5.22 30.98.64c9.25-4.59 20.53-5.73 31.47-4.09s21.91.66 33.22 1.78c11.31 1.13 22.03 1.31 33.78 2.22 11.75.92 20.75.37 33.22 1.78s18.6-5.45 32-4 18-2.66 18-17c-3.69-6.69 1.52-17.61-1.08-24.92s-16.4-.9-21.92-3.08c2.47 13.58 1.07 28.29-3 41-8.14-.1-16.92.14-25 0s-16.14-.53-24-1-15.12-.9-22.98-1.02c-7.85-.13-15.13-2.15-23.02-1.98s-15.33-.35-23-1-17.6 1.14-25 0-17.15 1.65-20 2Z"/><path fill="None" fill-opacity="0.0" stroke="#797973" stroke-opacity="1.00" stroke-width="0.3" d="M395 467c.37-3.78 1.63-8 0-12 .88 3.49 0 8.38 0 12Z"/><path fill="None" fill-opacity="0.0" stroke="#D3D2CA" stroke-opacity="1.00" stroke-width="0.3" d="M157 487c2.85-4.86 11.53-2.34 17-3 .22-9.12 1.23-18.04 2-27-5.88 2.25-22.45-4.7-24 4s-.06 18.16-1 27c2.15-.15 3.92-.65 6-1Z"/><path fill="None" fill-opacity="0.0" stroke="#222F3A" stroke-opacity="1.00" stroke-width="0.3" d="M665 473c-12.53-2.81-24.49-1.52-37-5s-24.2 2.52-35.75-6.25c-11.56-8.76-6.22 7.62 4.73 10.27 10.94 2.66 26.17 3.46 37.02 4.98 10.84 1.52 26.19 8.3 31-4Z"/><path fill="None" fill-opacity="0.0" stroke="#1A1F25" stroke-opacity="1.00" stroke-width="0.3" d="M1010 473c-3.49-19.47-20.7-13.41-36-16 11.38 4.85 34.63.96 35 19 1.41-.27.98-2 1-3Z"/><path fill="None" fill-opacity="0.0" stroke="#131920" stroke-opacity="1.00" stroke-width="0.3" d="M438 484c.26.58 8.12-4.74 11.23-5.77s8.8-4.61 12.47-6.53c3.66-1.93 10.98-5.06 14.3.3 1.34-10.52-16.01-6.06-19.77-1.77S435.95 475.75 438 484Z"/><path fill="None" fill-opacity="0.0" stroke="#0C1116" stroke-opacity="1.00" stroke-width="0.3" d="M487 475c-2.2.23 2.92 2.9 4.31.31 1.38-2.6 4.69-1.55 6.46-2.54s4.29-3.32 6.23-2.77c-.79-3.87-12.73 3.07-17 5Z"/><path fill="None" fill-opacity="0.0" stroke="#788083" stroke-opacity="1.00" stroke-width="0.3" d="M438 484c1.93 7.77 15.33.54 19.32-1.68 3.99-2.21 17.85-3.79 18.68-10.32-3.32-5.36-10.64-2.23-14.3-.3-3.67 1.92-9.36 5.5-12.47 6.53S438.26 484.58 438 484Z"/><path fill="None" fill-opacity="0.0" stroke="#161C23" stroke-opacity="1.00" stroke-width="0.3" d="M505 472c-2 1.33-4.91 1.6-6 4 2.51 3.28 12.43 3.95 10-3-2.22-1.52-1.07-1.75-4-1Z"/><path fill="None" fill-opacity="0.0" stroke="#9C9E92" stroke-opacity="1.00" stroke-width="0.3" d="M679 492c2.15 1.35-3.07 2.8-2 5 1.76-.22 3.52-.99 5-2 4.92-4.87 7.89-12.2 9-19-7.95-.32-7.5 10.63-12 16Z"/><path fill="None" fill-opacity="0.0" stroke="#181C21" stroke-opacity="1.00" stroke-width="0.3" d="M512 498c-14.33 1.56-29.42 11.81-44 17 6.15 2.64 14.57-4.99 21.92-7.08 7.35-2.08 14.61-7.77 22.08-9.92Z"/><path fill="None" fill-opacity="0.0" stroke="#616463" stroke-opacity="1.00" stroke-width="0.3" d="M666 499c-4.25.39-8.73 0-13 0 4.16.4 8.68.9 13 0Z"/><path fill="None" fill-opacity="0.0" stroke="#737578" stroke-opacity="1.00" stroke-width="0.3" d="M734 501h29c-9.05-.88-19.88-.88-29 0Z"/><path fill="None" fill-opacity="0.0" stroke="#4B4D4C" stroke-opacity="1.00" stroke-width="0.3" d="M607 503c9.33.9 20.16 2.33 30 3 .43-.1 1.09-.89 2-1-9.35-.9-20.33-1.86-30-3-.02 0-1.47.93-2 1Z"/><path fill="None" fill-opacity="0.0" stroke="#202223" stroke-opacity="1.00" stroke-width="0.3" d="M637 506c5.84-.62 12.91 1.27 18-1-5.27.49-10.75-.65-16 0-.91.11-1.57.9-2 1Z"/><path fill="None" fill-opacity="0.0" stroke="#222F3A" stroke-opacity="1.00" stroke-width="0.3" d="M846 513c-14.66-1.09-29.32-3.13-44-4s-30.31-1.51-44.93-2.07c-14.62-.57-30.5-.9-45.07 1.07s-27.71-6.72-39 2c20.29.5 36.21 7.04 53.77 17.23 17.57 10.19 41.46-1.41 60.21-3.25 18.74-1.85 40.57-8.05 59.02-10.98Z"/><path fill="None" fill-opacity="0.0" stroke="#191D22" stroke-opacity="1.00" stroke-width="0.3" d="M554 507c-13.7.05-27.58 11.06-42 13 6.39 4.16 14.48-2.57 21.31-4.69 6.82-2.13 14.13-6.18 20.69-8.31Z"/><path fill="None" fill-opacity="0.0" stroke="#171C22" stroke-opacity="1.00" stroke-width="0.3" d="M592 513c-17.46 1.57-33.33 14.52-51 18 17.65 1.61 34.51-12.31 51-18Z"/><path fill="None" fill-opacity="0.0" stroke="#F0F1F1" stroke-opacity="1.00" stroke-width="0.3" d="M647 518c-10.29 1.72-19.69 6.48-30 8 4.37 5.71 11.9 11.69 19 14-3.95-11 6.53-16.14 11-22Z"/><path fill="None" fill-opacity="0.0" stroke="#11181F" stroke-opacity="1.00" stroke-width="0.3" d="M497 528c-8.99-2.88-18.43-4.34-28-5 4.69 7.79 20.58 8.43 28 5Z"/><path fill="None" fill-opacity="0.0" stroke="#8A969B" stroke-opacity="1.00" stroke-width="0.3" d="M646 528c-1.59.98-5.85 13.96-5 17 .83 2.13 6.84 5.52 9 6 2.58.33 6-2.23 9 0h1c-2.27-6.7 1.39-16.75 1-24-1.88-.47-4.93 1.06-6-1-2.98.24-6.58.92-9 2Z"/><path fill="None" fill-opacity="0.0" stroke="#DDE0DE" stroke-opacity="1.00" stroke-width="0.3" d="M660 551c10.93 0 19.99.96 30 4 6.3-2.56-1.27-20.97 4-24-11.18-5.23-26.32-6.01-39-5 1.07 2.06 4.12.53 6 1 .39 7.25-3.27 17.3-1 24Z"/><path fill="None" fill-opacity="0.0" stroke="#BEC4C5" stroke-opacity="1.00" stroke-width="0.3" d="M641 545c-.85-3.04 3.41-16.02 5-17-4.31 1.92-6.95 11.97-5 17Z"/><path fill="None" fill-opacity="0.0" stroke="#F6F5ED" stroke-opacity="1.00" stroke-width="0.3" d="M576 538c2.66 6.02 9.3 7.93 14.25 11.75 4.94 3.82 11.18 6.2 16.45 9.56 5.26 3.35 10.53 6.99 16 9.99 5.46 3.01 10.32 7.45 16 10 5.67 2.56 10.37 7.92 16.38 9.62 6 1.71 14.96 5.71 17.92 7.08 7.74 1.45 15.53 2.68 23 5 .71-10.44 7.03-25.29-3.92-31.08-10.96-5.78-22.94-5.25-34.01-6.99-11.06-1.75-15.52-12.56-24.99-16.01S618.94 531.54 609 530s-23.77 5.12-33 8Z"/><path fill="None" fill-opacity="0.0" stroke="#BEC0B9" stroke-opacity="1.00" stroke-width="0.3" d="M690 555c3.32-.01 5.94 2.1 9 3-.95-9.49 5.73-21.98-5-27-5.27 3.03 2.3 21.44-4 24Z"/><path fill="None" fill-opacity="0.0" stroke="#BBBCB1" stroke-opacity="1.00" stroke-width="0.3" d="M642 595c4.78-.58 10.31-.45 15 0 5.54 0 10.74.16 16 1-2.96-1.37-11.92-5.37-17.92-7.08-6.01-1.7-10.71-7.06-16.38-9.62-5.68-2.55-10.54-6.99-16-10-5.47-3-10.74-6.64-16-9.99-5.27-3.36-11.51-5.74-16.45-9.56-4.95-3.82-11.59-5.73-14.25-11.75-8.13 2.29-17.21 4.43-24 9 14.14 6 30.2 13.6 43.31 21.7 13.1 8.09 32.95 11.14 36.69 27.3 3.35-.81 6.44-.93 10-1Z"/><path fill="None" fill-opacity="0.0" stroke="#60696D" stroke-opacity="1.00" stroke-width="0.3" d="M650 551c2.7.6 6.23 0 9 0-3-2.23-6.42.33-9 0Z"/><path fill="None" fill-opacity="0.0" stroke="#D9DAD6" stroke-opacity="1.00" stroke-width="0.3" d="M698 566c-8.12-12.95-28.53-10.13-43-11 12.17 8.26 30.11 3.43 43 11Z"/><path fill="None" fill-opacity="0.0" stroke="#6B6E6B" stroke-opacity="1.00" stroke-width="0.3" d="M642 595c5-.1 10 0 15 0-4.69-.45-10.22-.58-15 0Z"/><path fill="None" fill-opacity="0.0" stroke="#BDBEB4" stroke-opacity="1.00" stroke-width="0.3" d="M1020 600c-6.42-3.59-15.72-5.06-23-4 5.67 4.88 15.61 6.02 23 4Z"/><path fill="None" fill-opacity="0.0" stroke="#646B6A" stroke-opacity="1.00" stroke-width="0.3" d="M645 598h12c-3.71-.36-8.23-.37-12 0Z"/><path fill="None" fill-opacity="0.0" stroke="#BDBEB3" stroke-opacity="1.00" stroke-width="0.3" d="M670 606c5.31 0 10.7.29 16 0 2.49.12 5.53.16 7-2-10.75-5.04-23.53-6-36-6h-12c-2.42.68-7.9-1.67-8 2 10.45 3.86 21.55 6 33 6Z"/><path fill="None" fill-opacity="0.0" stroke="#565756" stroke-opacity="1.00" stroke-width="0.3" d="M686 606c-5.3.29-10.69 0-16 0 5.04.49 10.84.84 16 0Z"/><path fill="None" fill-opacity="0.0" stroke="#828485" stroke-opacity="1.00" stroke-width="0.3" d="M1021 606c-3.83.43-8.14.15-12 0 3.95.56 7.92.95 12 0Z"/><path fill="#FEFEFE" fill-opacity="1.00" stroke="None" d="M0 816h1225V0H0v816m255-605c-.43 2.54-.51 6.89 1 9 5.45 5.45 12.39 8.3 10 18s.9 18.51-1.98 27.02c-2.87 8.52.23 17.96 9.05 17.91 8.83-.06 15.74.72 24 3 8.27 2.27 16.04 2.82 23.94 5.06 7.89 2.25 14.89 3.41 22.66 5.34s15.29 4.16 23.01 5.99c7.72 1.84 15.68 3.96 23.32 5.68 7.65 1.72 15.23 4.52 22.68 6.32 7.44 1.8 15.13 4.98 22.34 6.66 7.22 1.67 11.03-5.71 17.23-8.73 6.19-3.02 12-7.38 17.98-11.02s11.91-7.34 18-11c6.08-3.66 11.65-7.49 18-11 6.34-3.51 12.13-7.03 18.8-10.2s12.51-5.88 20.04-7.96c7.54-2.07 16.76-3.09 24.93-4.07s17.49-2.78 26-3 19.21-2.18 27.67-.67 15.87 3.38 24 5 14.58 3.95 22.55 5.45c7.98 1.49 16.08 3.2 23.85 5.15 7.77 1.94 16.03 3.03 23.6 5.4s15.06 4.29 22.55 6.45c7.5 2.16 14.74 4.61 22 7 7.27 2.38 13.23 4.31 20.01 7.99s10.82 6.8 16.02 12.98c5.21 6.17 3.77 15.79 1.76 23.26-2.01 7.46-3.93 15.66-5.99 23.01-2.05 7.36-4.06 13.66-10.02 18.98 56.63-3.79 111.66-14 169-15 6.02-9.44 16.79-18.3 30-16 3.51-.34 7.52-.42 11 0 10.09.2 17.2 8.17 26.68 2.68s17.07-7.33 27.34-9.66c10.28-2.32 20.6-4.12 31.05-5.95 10.46-1.83 20.51-4.03 31-6 10.49-1.96 20.55-3.88 31.15-5.85 10.61-1.97 19.88-4.25 30.8-6.2 10.93-1.95 18.56-5.97 30.65-5.69 12.09.29 11.08 14.59.31 16.64-10.78 2.06-15.5 9.1-25.06 11.95-9.55 2.86-16.44 7.82-25.15 11.85s-16.31 7.61-24.85 12.15c-8.53 4.55-15.81 8.09-24.6 12.4-8.78 4.31-17.12 8.08-27.32 9.68-10.21 1.59-20.7-.41-30.08-4.92-9.38-4.52-20.37-5.7-30.92-6.08 2.08 6.67 15.88 9.1 13 20s.09 21.78-1 33c16.93 4.59 21.28 19.9 18 36s-2.99 34.84-5.98 51.02c-2.98 16.19-1.46 36.39-5.02 51.98s2.37 37.22-13 44c-4.08.95-8.05.56-12 0-9.01-.34-22.78-3.32-22-15 .79-11.68.35-23.31 2-35s1.74-21.71 3-34 1.7-20.56 3-34-15.97-10.33-27-10-22.61-.47-32.23-5.77-20.71-4.39-31.77-5.23-22.71-2.53-34.02-2.98c-11.32-.44-22.8-1.9-34-3-11.21-1.09-24.03-.29-34.98-2.02s-22.39-1.87-33.02-3.98c-10.63-2.1-19.93-4.25-29.98-8.02-4.83 17.61-20.33 31.46-40 27 .03 8.09-15.29 25.23-3 28s26.14-2.19 39-1c9.12-.88 19.95-.88 29 0 9.77 0 18.29 1.25 28 2 9.72.75 19.13.78 29 2s18.75.32 29 2 3.75 13.51-5.22 12.78c-8.98-.73-18.05 3.45-26.78 4.22-8.74.77-17.45 3.71-26.07 4.93-8.63 1.21-17.06 3-25.6 4.4S746.82 537.5 738 537s-14.53-5.17-21.7-9.3c-7.17-4.14-14.67-7.92-23.3-7.7 3.19 7.44 16.18 10.04 13.22 21.22-2.95 11.18-1.33 22.16-1.91 32.47-.58 10.32.99 21.78-4.08 31.54s-18.33 6.98-28.45 6.99-20.47-3.47-31.46-4.54c-10.98-1.07-12.26-12.44-19.02-17.98-6.75-5.55-16.27-8.69-23.99-13-7.73-4.32-15.93-8.88-24.01-13-8.07-4.13-16.38-9.92-25.3-11.7-2.95 17.67-39.37 19.11-36-2-10.07-4.55-21.31 4.86-32 1s-16.14-11.73-28-12-21.04-7.36-33-7c2.39 15.2-29.36 17.45-30.99 3.99-1.63-13.45-18.05-17.85-20.01-31.99-14.02 6.07-29.07 2.73-44 2s-32.84-2.82-47.67-2.33-32.51-4.99-46.35-3.65c-13.85 1.35-27.16 10.62-41.05 5.05s-29.22.36-40.16-9.84-.83-30.76.23-42.23c-14.26-3.3-9.18-17.44-9-29s2.49-26.18 3-38c-10.97 2.69-25.07.71-35.02-2.98-9.95-3.68-18.01-8.6-27.2-12.8-9.19-4.19-18.96-9.56-28.01-12.99s-18.45-10.31-27-13-23.54-12.21-11.69-18.15 22.34 4.64 33.6 5.24 21.44 5.45 32.39 7.61c10.95 2.15 21.92 4.86 32.94 7.06 11.01 2.21 22.15 5.03 32.99 8.01.85-18.14 4.32-39.17 4.99-57.01S152.45 260.22 174 258c3.76-9.15-4.57-30.99 7.75-36.25 12.33-5.25 4.44-22.48 18.28-25.72 13.83-3.25 7.76-21.11 6.97-33.03s4.19-23.94 11.3-32.7 13.27-15.24 20.45-23.55c7.19-8.3 13.95-14.52 21-23 7.06-8.48 15.02-14.11 21.5-23.5 6.47-9.39 20.95-10.72 30.82-3.32s1.05 22.68-.05 34.09c-1.09 11.42-5.79 24.8-7.01 36.99-1.22 12.18-4.21 25.62-5.94 38.06s-5.13 20.8-12.32 31.68c-7.2 10.88-26.47 4.18-31.75 13.25Z"/><path fill="#101921" fill-opacity="1.00" stroke="None" d="M763 501h-29c-12.86-1.19-26.71 3.77-39 1s3.03-19.91 3-28c19.67 4.46 35.17-9.39 40-27 10.05 3.77 19.35 5.92 29.98 8.02 10.63 2.11 22.07 2.25 33.02 3.98s23.77.93 34.98 2.02c11.2 1.1 22.68 2.56 34 3 11.31.45 22.96 2.14 34.02 2.98s22.15-.07 31.77 5.23 21.2 6.1 32.23 5.77 28.3-3.44 27 10-1.74 21.71-3 34-1.35 22.31-3 34-1.21 23.32-2 35c-.78 11.68 12.99 14.66 22 15 3.86.15 8.17.43 12 0 15.37-6.78 9.44-28.41 13-44s2.04-35.79 5.02-51.98c2.99-16.18 2.7-34.92 5.98-51.02s-1.07-31.41-18-36c1.09-11.22-1.88-22.1 1-33s-10.92-13.33-13-20c10.55.38 21.54 1.56 30.92 6.08 9.38 4.51 19.87 6.51 30.08 4.92 10.2-1.6 18.54-5.37 27.32-9.68 8.79-4.31 16.07-7.85 24.6-12.4 8.54-4.54 16.14-8.12 24.85-12.15s15.6-8.99 25.15-11.85c9.56-2.85 14.28-9.89 25.06-11.95 10.77-2.05 11.78-16.35-.31-16.64-12.09-.28-19.72 3.74-30.65 5.69-10.92 1.95-20.19 4.23-30.8 6.2-10.6 1.97-20.66 3.89-31.15 5.85-10.49 1.97-20.54 4.17-31 6-10.45 1.83-20.77 3.63-31.05 5.95-10.27 2.33-17.86 4.17-27.34 9.66S1004.09 343.2 994 343c-3.66-.07-7.34 0-11 0-13.21-2.3-23.98 6.56-30 16-57.34 1-112.37 11.21-169 15 5.96-5.32 7.97-11.62 10.02-18.98 2.06-7.35 3.98-15.55 5.99-23.01 2.01-7.47 3.45-17.09-1.76-23.26-5.2-6.18-9.24-9.3-16.02-12.98s-12.74-5.61-20.01-7.99c-7.26-2.39-14.5-4.84-22-7-7.49-2.16-14.98-4.08-22.55-6.45s-15.83-3.46-23.6-5.4c-7.77-1.95-15.87-3.66-23.85-5.15-7.97-1.5-14.42-3.83-22.55-5.45s-15.54-3.49-24-5-19.16.45-27.67.67-17.83 2.02-26 3-17.39 2-24.93 4.07c-7.53 2.08-13.37 4.79-20.04 7.96s-12.46 6.69-18.8 10.2c-6.35 3.51-11.92 7.34-18 11-6.09 3.66-12.02 7.36-18 11s-11.79 8-17.98 11.02c-6.2 3.02-10.01 10.4-17.23 8.73-7.21-1.68-14.9-4.86-22.34-6.66-7.45-1.8-15.03-4.6-22.68-6.32-7.64-1.72-15.6-3.84-23.32-5.68-7.72-1.83-15.24-4.06-23.01-5.99s-14.77-3.09-22.66-5.34c-7.9-2.24-15.67-2.79-23.94-5.06-8.26-2.28-15.17-3.06-24-3-8.82.05-11.92-9.39-9.05-17.91 2.88-8.51-.41-17.32 1.98-27.02s-4.55-12.55-10-18c-2.87-2.87-2.02-5.65-1-9 5.28-9.07 24.55-2.37 31.75-13.25 7.19-10.88 10.59-19.24 12.32-31.68s4.72-25.88 5.94-38.06c1.22-12.19 5.92-25.57 7.01-36.99 1.1-11.41 9.92-26.69.05-34.09s-24.35-6.07-30.82 3.32c-6.48 9.39-14.44 15.02-21.5 23.5-7.05 8.48-13.81 14.7-21 23-7.18 8.31-13.34 14.79-20.45 23.55S206.21 151.08 207 163s6.86 29.78-6.97 33.03c-13.84 3.24-5.95 20.47-18.28 25.72-12.32 5.26-3.99 27.1-7.75 36.25-21.55 2.22-22.34 21.15-23.01 38.99S146.85 335.86 146 354c-10.84-2.98-21.98-5.8-32.99-8.01-11.02-2.2-21.99-4.91-32.94-7.06-10.95-2.16-21.13-7.01-32.39-7.61s-21.75-11.18-33.6-5.24 3.14 15.46 11.69 18.15 17.95 9.57 27 13 18.82 8.8 28.01 12.99c9.19 4.2 17.25 9.12 27.2 12.8 9.95 3.69 24.05 5.67 35.02 2.98-.51 11.82-2.82 26.44-3 38s-5.26 25.7 9 29c-1.06 11.47-11.17 32.03-.23 42.23s26.27 4.27 40.16 9.84 27.2-3.7 41.05-5.05c13.84-1.34 31.52 4.14 46.35 3.65s32.74 1.6 47.67 2.33 29.98 4.07 44-2c1.96 14.14 18.38 18.54 20.01 31.99 1.63 13.46 33.38 11.21 30.99-3.99 11.96-.36 21.14 6.73 33 7s17.31 8.14 28 12 21.93-5.55 32-1c-3.37 21.11 33.05 19.67 36 2 8.92 1.78 17.23 7.57 25.3 11.7 8.08 4.12 16.28 8.68 24.01 13 7.72 4.31 17.24 7.45 23.99 13 6.76 5.54 8.04 16.91 19.02 17.98 10.99 1.07 21.34 4.55 31.46 4.54s23.38 2.77 28.45-6.99 3.5-21.22 4.08-31.54c.58-10.31-1.04-21.29 1.91-32.47 2.96-11.18-10.03-13.78-13.22-21.22 8.63-.22 16.13 3.56 23.3 7.7 7.17 4.13 12.88 8.8 21.7 9.3s18.79-2.27 27.33-3.67 16.97-3.19 25.6-4.4c8.62-1.22 17.33-4.16 26.07-4.93 8.73-.77 17.8-4.95 26.78-4.22 8.97.73 15.47-11.1 5.22-12.78s-19.13-.78-29-2-19.28-1.25-29-2c-9.71-.75-18.23-2-28-2M243 209c-10.85-3.6-22.07-.63-33 1 3.74-9.18 6.04-19.9 6-30s-3.71-23.01-.08-32.08c3.64-9.07 8.2-14.79 14.33-21.67 6.13-6.89 11.36-12.19 17-19 5.65-6.8 11.57-12.13 17-19 5.43-6.88 13.09-10.78 17.5-18.5 4.41-7.71 15.53-15.69 23.94-8.44 8.42 7.24-.59 19.05-.69 28.69-.1 9.65-4.89 20.4-5.78 30.22-.89 9.83-2.9 22.16-4.22 31.78s-2.53 21.28-6.31 29.69c-3.77 8.42-7.94 16.96-17.76 18.24-9.83 1.27-22.26-1.55-27.93 9.07m4 13c4.24 1.36 10.97 4.66 13 9 4.16 8.32-2.83 20.73-1 30-2.35-2.25-5.93-2.75-8-5-1.83-.91-5.3-2.51-7-3-7.12-2.04-15.38-3-23-3h-14c-8.81 0-14.98 3.44-23 5-1.28.25-2.44 1.63-4 1-.28-8.57 1.48-16.61 2-25 2.65-8.5 18.7-10.57 26-12 12.48-2.45 27.19-.78 39 3m11 52c-16.87-11.54-37.25-15.37-57-19 10.23-2.25 25.78-1.27 35.67 1.33 9.9 2.59 23.18 4.64 21.33 17.67m522 95c-14.78 12.76-29.59 25.63-46 36-5.12-7.17-12.33-10.63-17-18 12.9-16.71.28-31.09-16.68-33.32-16.95-2.23-32.94-9.07-49.33-11.67s-36.34-11.7-53-6.02c-16.65 5.68-22.39 14.77-38.07 21.93s-20.68 20.74-23.9 37.1c-3.21 16.37-5.1 34.2-9.8 51.2-4.69 17 2.75 33.24 20.86 36.7 18.1 3.47 31.28 9.4 49.59 11.41 18.31 2 37.3 5.11 56.33 4.67 4.27 0 8.75.39 13 0 5.1-1.06 9.42-2.73 13-7 4.5-5.37 4.05-16.32 12-16-1.11 6.8-4.08 14.13-9 19-8.76 9.85-20.8 11.45-32.68 15.32s-24.84 7.21-36.54 11.46c-11.71 4.25-27.76 5.38-38.79 10.21s-26.72 4.24-30.91 17.09S514.59 564.35 517 546c4.08-.3 7.81-2.02 12-2-6-1.75-21.45-2.45-29.67-.67s-20.12 5.35-26.25-2.41c-6.12-7.77-15.03-6.46-24.09-8.91S430.15 528.35 421 526c1.23-9.22 12.63-5.95 19-8-.81-2.04-3.27-2.97-4-5-6.56 2.13-19.6.55-20.3 10.69-.71 10.15-6.9 17.6-17.7 14.31s-2.09-16.08-12-20c-4.19-2.84-10.32-5.48-10-12 9.21-4.84 22.29-5.54 29.75-14.25s3.48-27.74 5.25-38.75c0-2.85.5-6.21 0-9-4.27-13.52-27.44-3.01-36 1-1.44-14.79 11.18-22.18 24.08-26.92 12.89-4.74 19-19.8 16.92-34.08 5.41 1.69 14.71 1.15 16 8 4.87-8.41 11.03-10.71 18.25-17.75 7.22-7.05 4.24-21.71 5.75-31.25 29.96-13.81 59.27-29.47 89-44-1.39-2.17-4.3.21-6 1-28.03 13.11-55.38 28.14-83 42 2.89-7.36.92-18.55-9-18 1.66-1.56 3.78-3.08 6-4 12.01-7.99 22.58-15.16 35.25-22.75 12.66-7.6 23.32-14.92 36.98-22.02 13.66-7.11 30.05-10.82 45.99-13.01 15.94-2.18 38.42-4.48 54.78-2.22s32.54 7.47 48.22 10.78c15.69 3.3 33.06 6.96 47.8 11.2 14.75 4.23 31.71 9.45 45.2 13.8 13.5 4.34 31.73 14.19 27.79 29.23S792.25 358.43 780 369m-338-40c9.06 2.53 9.5 5.13 8.02 14.02-1.47 8.89.09 15.28-1.02 23.98-21.27.24-45.18 8.45-65 0-11.06-3.04-22.5-5.59-33.22-9.78-10.72-4.18-22.07-6.08-32.79-10.21-10.72-4.14-21.25-6.74-32.01-10.99-10.77-4.24-20.54-6-31.06-11.94-10.51-5.95-16.44-10.03-29.14-13.86s-24.49 2.5-23.71 16.85c.79 14.36-3.29 25.86-3.4 39.6S195.23 392.45 195 406s-3.88 25.73-5 39c-13.11-6.58-29.52-5.65-44-4-4.55-2.99.85-15.52 0-21s2.52-14.53 2-21 1.65-14.25 2-21 .88-14.43 1.78-21.22.14-15.02 1.22-21.78 1.24-14.23 2-21 .97-14.55 1.98-21.02c1-6.48-.59-14.86 2.8-20.2 3.38-5.35 8.89-7.25 14.22-8.78 19.31-5.54 39.64-1.42 58.22 2.78 18.59 4.19 26.65 21.18 45.78 22.22s37.76 8.23 56.22 11.78 36.3 9.28 54.46 13.54c18.16 4.27 35.37 9.67 53.32 14.68m765-15c-12.15 8-25.83 12.4-39.22 18.78-13.4 6.37-26.56 11.97-39.86 19.14-13.29 7.18-24.94 13.46-39.14 19.86-14.21 6.39-32.6 4.19-46.47-4.09-13.88-8.27-36.75 3.61-47.31-9.69 23.7-3.52 42.85-16.39 67.01-18.99s49.14-10.61 73.21-13.79 48.19-13.17 71.78-11.22m-823 65c-3.25.31-6.76.46-10 0-11.06-.42-21.52-5.13-32.02-7.98-10.51-2.85-20.51-6.97-31.05-9.95-10.55-2.97-19.26-6.78-30-10-10.75-3.21-19.4-6.78-30.61-10.39-11.21-3.62-19.91-6.43-33.34-6.66S207.42 312.5 220 314s19.6 4.92 29.69 10.31c10.1 5.38 18.52 8.51 28.99 12.01 10.46 3.51 18.97 7.22 29.39 10.61 10.43 3.39 20.36 6.84 30.95 10.05 10.6 3.2 19.21 6.6 30.2 9.8 11 3.19 22.44 6.27 34.78 6.22s26.75-.71 39-2c-1.73 5.15-9.3 6.12-12 11-14.75-8.07-30.76-2.39-47-3m-239-19c-1.48 6.45-1.14 13.37-2 20-10.3 2.6-22.98.8-32.22-2.78-9.25-3.58-17.89-7.48-26.46-11.54-8.56-4.06-16.66-8.66-25.34-11.65-8.69-3-16.97-10.24-25.21-12.8s-22.82-11.17-10.7-10.3c12.13.87 19.05 6.37 30.15 7.85s19.3 5 29.85 7.15c10.56 2.14 20.59 4.63 31 7 10.42 2.36 20.81 3.68 30.93 7.07m217 85c-6.37 1.08-13.94 1-21 1-37.39 0-74.36 5.59-112 5 .99-9.76 2.58-18.73 4.78-28.22 2.19-9.49-14.85-11.11-10.78-19.78 6.3 3.43 10.44 6.45 15.75 12.25 5.32 5.8 12.67 6.08 20.25 7.75 7.58 1.66 15.99 2.3 24.01 3.99 8.01 1.7 16.35.95 24.66 3.34s15.51.29 24.35 3.65c8.85 3.35 17.18-3.88 7.9-7.9-9.27-4.03-13.85-3.79-21.99-7.01-8.15-3.21-13.5-4.33-21.15-6.85-7.66-2.52-13.51-4.95-21-7-7.49-2.04-13.37-5.15-20.86-7.14-7.49-2-12.96-5.65-20.99-7.01s-9.64-8.46-13.68-14.32c-4.05-5.86-17.1-2.92-16.25-11.75.86-8.84 2.91-16.99 3-26 35.41 1.53 65.85 17.11 99.07 26.93 33.23 9.81 67.7 26.45 103.93 17.07 2.95 15.56-5.22 28.71-19.23 32.77S367.6 430.83 368 445h-6m637-96c.99.42 2.94.26 3 2-4.46.49-8.71 1.76-13 3 .33 3.3-1.42 6 3 8-5.49-2.78-11.93-.71-18 0 4.27-6.21-3.87-9.22-8-10 10.28-2.81 22.63-5.32 33-3m-210 30c23.85 0 47.33-4.62 71-7 23.68-2.37 47.97-3.67 72-6 6.18-.6 16.66-3.23 22 1-19.29 2.41-27.92 18.77-48.02 17.02-20.11-1.74-44.97-.4-65.98-1.02s-45.05 1.83-65-2c4.16-2.49 9.17-2.02 14-2m113 11c4.59 0 9.44.47 14 0 12.37-2.74 22.6-15.92 35-15-14.74 7.29-5.04 28.2-10 41-19.69-13.78-42.6-12.42-66-16s-48.98-7.94-73-10c32.57-2.54 66.98-.35 100 0m92-15c4.76.1 8.57.76 13 2 5.98 1.67 14.69 3.39 15 11 .3 7.61-.92 17.25-1 25-3.97-2.6-9.22-2.87-13-5-8.9-2.27-18.51-2-28-2-6.47 0-12.85-.23-19 1-4.44.89-8.93 1.85-13 4 .14-9.39-.74-19.66 2-28 3.29-6.5 17.6-7.78 24-8 6.35-.91 13.73-.76 20 0m-352 0c13 1.57 31.05 6.36 44.02 7.98C699 384.59 720.74 386.42 719 403s4.94 34.92-5.25 47.75c-10.2 12.82-27.56 5.83-41.75 3.25-14.19-2.57-31.15-.85-45.69-7.31-14.54-6.45-7.91-28.22-9.31-43.69s5.16-30.4 25-28m-63 1c2.88 1.77-2.99 12.05-5.77 15.23s-8.05 8.22-9.01 13.99c-.96 5.78-2.19 13.86-2.22 20.78s.76 13.57 2.92 20.08c2.16 6.5-3.58 12.06-3.85 18.99-.27 6.94-12.84 6.04-10.29-1.29s.87-13.99 2.22-20.78 2.83-12.84 3.98-19.02c1.15-6.19 2.99-13.55 4.01-18.99 1.03-5.43 3.67-13.78 5.32-17.68 1.64-3.9 8.53-13.87 12.69-11.31m39 2c-7.4 17.24-3.02 32.7-5 52s16.84 23.49 32.67 24.33S678.99 460.7 695 462c-4.7 13.76-19.7 8.15-31.02 6.02-11.33-2.12-26.42-2.76-38.05-4.95-11.64-2.18-25.52-.17-34.93-8.07 18.06-15.83 31.27-57.02 5-70 5.18-6.27 14.93-4.15 22-7m-400 6v13c-5.55-4.69-19.3-3.95-15-14 5.22-.56 9.72 1.72 15 1m717 36c9.71 4.59 23.53 1.57 34 1 21.72-1.18 36.1-.89 56.23 7.77s13.84 30 11.77 49.23-4.7 39.46-6.93 59.07c-2.22 19.62-3.3 41.3-6.07 60.93-6.82-4.51-15.86-3.72-23-6-3.05.08-5.33 1.72-8 3-.94-19.68 4.45-36.28 4-56s5.27-35.5 4-56-34.48-5.73-49-11-31.7-10.99-49-11-38.1-3.65-56-4-37.02-4.61-55.01-4.99c-17.98-.39-34.32-4.81-50.99-10.01-3.49-2.77-.2-10.89-1-16s-.34-11.95-2-17c14.42-7 23-22.64 40.07-18.07 17.07 4.56 35.6 5.34 52.95 9.05 17.36 3.71 37.66 3.81 54.98 7.02 17.32 3.2 34.96 2.03 49 13m-334-27c7.08 5.48 5.27 18.99 4 27-2.36 14.86-11.87 35.44-31 28 2-5.91 10.42-8.87 10-16-3.39 11.54-17.43 15.26-17.78 1.78s-.74-23.5 5.09-34.47c5.82-10.98 21.14-9.7 29.69-6.31m-282 32c-17.05 1.09-36.06-7.37-54-7s-27.26-12.86-41-22c15.33 1.37 31.05 10 47.01 13.99 15.95 4 31.68 11.92 47.99 15.01m411-17c5.07 7.61 5.73 17.76 5 27-1.42 17.84-14.61 39.09-36 33 1.85-7.65 12.87-5.26 17.25-12.75 4.38-7.5 7.31-13.85 6.75-23.25s.42-20.45 0-30c3.03.41 5.26 3.74 7 6m-516 4c16.78 5.89 12.8 17.9 10 33-4.72-1.46-9.2-3.69-14-5-3.92-.96-7.83-1.92-12-2 .28-9.76 1.33-19.32 2-29 4.8.44 9.51 1.34 14 3m776-2c10.29 0 23.88 2.11 30 10-22.68-8.54-49.47-5.35-72-3 6.86-5.65 16.95-6.67 26-7 5.04-.49 11.03-.48 16 0m-782 34c4.83 1.39 12.37 2.51 14 8-4.52-.22-8.77-1.61-13-3-4.23-1.03-8.54-1.75-13-2-.73-7.78 7.78-4.04 12-3m-21 3c-11.34 5.31-30.77 4.72-40-3 13.22-2.12 27.62-1.22 40 3m203 4c3.29 1 3.65.69 5 4 1.63 4 .37 8.22 0 12v13c0 14.34-4.6 18.45-18 17s-19.53 5.41-32 4-21.47-.86-33.22-1.78c-11.75-.91-22.47-1.09-33.78-2.22-11.31-1.12-22.28-.14-33.22-1.78s-22.22-.5-31.47 4.09c-9.26 4.58-21.29-.07-30.98-.64S162.56 494.53 154 491c18.27-5.8 38.18-1.69 56 3-.49-2.22-3.57-1.74-4-4-13.8-7.13-34.21-5.52-49-3-2.08.35-3.85.85-6 1 .94-8.84-.55-18.3 1-27s18.12-1.75 24-4c12.56-1 23.15-8.1 36.07-2.07 12.93 6.02 27.23.54 40.93 1.07 13.71.54 28.24-1.29 42-2s28.06-1.14 42-2 28.73-1 43-1c3.41-.33 6.48-1.07 10 0m275 22c-4.81 12.3-20.16 5.52-31 4-10.85-1.52-26.08-2.32-37.02-4.98-10.95-2.65-16.29-19.03-4.73-10.27 11.55 8.77 23.24 2.77 35.75 6.25s24.47 2.19 37 5m181 40c-18.45 2.93-40.28 9.13-59.02 10.98-18.75 1.84-42.64 13.44-60.21 3.25C709.21 517.04 693.29 510.5 673 510c11.29-8.72 24.43-.03 39-2s30.45-1.64 45.07-1.07c14.62.56 30.25 1.2 44.93 2.07s29.34 2.91 44 4m-199 5c-4.47 5.86-14.95 11-11 22-7.1-2.31-14.63-8.29-19-14 10.31-1.52 19.71-6.28 30-8m47 13c10.73 5.02 4.05 17.51 5 27-3.06-.9-5.68-3.01-9-3-10.01-3.04-19.07-4-30-4h-1c-2.77 0-6.3.6-9 0-2.16-.48-8.17-3.87-9-6-1.95-5.03.69-15.08 5-17 2.42-1.08 6.02-1.76 9-2 12.68-1.01 27.82-.23 39 5m-21 65c-5.26-.84-10.46-1-16-1-5 0-10-.1-15 0-3.56.07-6.65.19-10 1-3.74-16.16-23.59-19.21-36.69-27.3C582.2 560.6 566.14 553 552 547c6.79-4.57 15.87-6.71 24-9 9.23-2.88 23.06-9.54 33-8s14.61 13.47 24.08 16.92 13.93 14.26 24.99 16.01c11.07 1.74 23.05 1.21 34.01 6.99 10.95 5.79 4.63 20.64 3.92 31.08-7.47-2.32-15.26-3.55-23-5m25-30c-12.89-7.57-30.83-2.74-43-11 14.47.87 34.88-1.95 43 11m322 34c-7.39 2.02-17.33.88-23-4 7.28-1.06 16.58.41 23 4m-363-2c12.47 0 25.25.96 36 6-1.47 2.16-4.51 2.12-7 2-5.16.84-10.96.49-16 0-11.45 0-22.55-2.14-33-6 .1-3.67 5.58-1.32 8-2 3.77-.37 8.29-.36 12 0Z"/><path fill="#222F3A" fill-opacity="1.00" stroke="None" d="M243 209c5.67-10.62 18.1-7.8 27.93-9.07 9.82-1.28 13.99-9.82 17.76-18.24 3.78-8.41 4.99-20.07 6.31-29.69s3.33-21.95 4.22-31.78c.89-9.82 5.68-20.57 5.78-30.22.1-9.64 9.11-21.45.69-28.69-8.41-7.25-19.53.73-23.94 8.44-4.41 7.72-12.07 11.62-17.5 18.5-5.43 6.87-11.35 12.2-17 19-5.64 6.81-10.87 12.11-17 19-6.13 6.88-10.69 12.6-14.33 21.67-3.63 9.07.04 21.98.08 32.08s-2.26 20.82-6 30c10.93-1.63 22.15-4.6 33-1Z"/><path fill="#909193" fill-opacity="1.00" stroke="None" d="M256 220c-1.51-2.11-1.43-6.46-1-9-1.02 3.35-1.87 6.13 1 9Z"/><path fill="#D1D7D8" fill-opacity="1.00" stroke="None" d="M208 219c.74.1 2.59 1.91 4 1-1.75 9.37-2.44 19.07-2 29 3.82-.33 7.97.71 11 1 7.62 0 15.88.96 23 3 3.77-2.53-.78-12.72 1.33-16.67s-.47-10.72 1.67-14.33c-11.81-3.78-26.52-5.45-39-3Z"/><path fill="#828F97" fill-opacity="1.00" stroke="None" d="M182 231c-.38 2.82 1.27 9.53 0 13s5.22 7.78 2 11c8.02-1.56 14.19-5 23-5 .74-.16 1.74-.89 3-1-.44-9.93.25-19.63 2-29-1.41.91-3.26-.9-4-1-7.3 1.43-23.35 3.5-26 12Z"/><path fill="#ECEBE5" fill-opacity="1.00" stroke="None" d="M244 253c1.7.49 5.17 2.09 7 3 2.89-1.77.49-10.43 1.99-14.01 1.5-3.57-.83-11.87 2.01-14.99 1.95.43 3.91 5.19 5 4-2.03-4.34-8.76-7.64-13-9-2.14 3.61.44 10.38-1.67 14.33s2.44 14.14-1.33 16.67Z"/><path fill="#C5C6BE" fill-opacity="1.00" stroke="None" d="M251 256c2.07 2.25 5.65 2.75 8 5-1.83-9.27 5.16-21.68 1-30-1.09 1.19-3.05-3.57-5-4-2.84 3.12-.51 11.42-2.01 14.99-1.5 3.58.9 12.24-1.99 14.01Z"/><path fill="#B0B8BA" fill-opacity="1.00" stroke="None" d="M184 255c3.22-3.22-3.27-7.53-2-11s-.38-10.18 0-13c-.52 8.39-2.28 16.43-2 25 1.56.63 2.72-.75 4-1Z"/><path fill="#6A7075" fill-opacity="1.00" stroke="None" d="M207 250h14c-3.03-.29-7.18-1.33-11-1-1.26.11-2.26.84-3 1Z"/><path fill="#DFDFDA" fill-opacity="1.00" stroke="None" d="M258 274c1.85-13.03-11.43-15.08-21.33-17.67-9.89-2.6-25.44-3.58-35.67-1.33 19.75 3.63 40.13 7.46 57 19Z"/><path fill="#F6F4EC" fill-opacity="1.00" stroke="None" d="M453 320c31.15-13.58 59.12-42.78 95-48-1.98 7.71-3.79 15.55-3 24-2.13.67-5.93 1.22-6 4 1.7-.79 4.61-3.17 6-1-5.34 16.43 8.84 28 24 26s25.79-6.46 39-11c3.36-2.33 7.37-4.13 11-6 16.62-8.59 35.86.67 53.22 3.78 17.36 3.1 35.47 8.84 52.78 12.22 17.32 3.38 32.75 8.97 38 27 3.11 10.69 3.37 14.97 15 17 .82.14 1.1 1.04 2 1 12.25-10.57 11.07-28.95 15.01-43.99s-14.29-24.89-27.79-29.23c-13.49-4.35-30.45-9.57-45.2-13.8-14.74-4.24-32.11-7.9-47.8-11.2-15.68-3.31-31.86-8.52-48.22-10.78s-38.84.04-54.78 2.22c-15.94 2.19-32.33 5.9-45.99 13.01-13.66 7.1-24.32 14.42-36.98 22.02-12.67 7.59-23.24 14.76-35.25 22.75m136-6c-7.96 2.62-29.71 6.58-34.75-3.25-5.05-9.82-.94-28.53 4.75-36.75 8.7-12.56 20.53-3.52 35.07-8.93 14.55-5.41 21.43 12.64 15.94 24.94S602.58 309.53 589 314m196-2c8.79 4.85 7.4 18.67 5 26-2.39 7.33-2.54 22.26-12 23-5.71.45-6.71-7.81-7-12-.72-4.05-.64-8.03 0-12 .46-8.46 2.51-31.33 14-25Z"/><path fill="#F7F5ED" fill-opacity="1.00" stroke="None" d="M174 264c3.97-.46 10-.29 15-1-3.42 59.05-11.83 116.87-15 176-9.02 1.26-20.57-2.57-28 2 14.48-1.65 30.89-2.58 44 4 1.12-13.27 4.77-25.45 5-39s3.56-25.59 3.67-39.33 4.19-25.24 3.4-39.6c-.78-14.35 11.01-20.68 23.71-16.85s18.63 7.91 29.14 13.86c10.52 5.94 20.29 7.7 31.06 11.94 10.76 4.25 21.29 6.85 32.01 10.99 10.72 4.13 22.07 6.03 32.79 10.21 10.72 4.19 22.16 6.74 33.22 9.78 10.87-1.22 18.63-15.43 28.25-19.75 9.62-4.33 18.73-18.14 29.75-18.25-17.95-5.01-35.16-10.41-53.32-14.68-18.16-4.26-36-9.99-54.46-13.54S297.13 290.04 278 289s-27.19-18.03-45.78-22.22c-18.58-4.2-38.91-8.32-58.22-2.78m193 72c-.13 4.9.64 10.52 0 16-14.45-2.67-27.87-9.04-42-13 1.55-4.77 1.26-10.01 2-15 .72-4.53 1.3-9.41 2-14 13.49 3.4 26.51 8.39 40 12-2.73 4.04.79 10.38-2 14Z"/><path fill="#DBDAD1" fill-opacity="1.00" stroke="None" d="M174 264c-5.33 1.53-10.84 3.43-14.22 8.78-3.39 5.34-1.8 13.72-2.8 20.2-1.01 6.47-1.22 14.25-1.98 21.02s-.92 14.24-2 21-.32 14.99-1.22 21.78-1.43 14.47-1.78 21.22-2.52 14.53-2 21-2.85 15.52-2 21-4.55 18.01 0 21c7.43-4.57 18.98-.74 28-2 3.17-59.13 11.58-116.95 15-176-5 .71-11.03.54-15 1Z"/><path fill="#959898" fill-opacity="1.00" stroke="None" d="M559 274c7.81-5.7 19.1-1.31 29-3s12.84 12.56 10.22 20.22-1.04 17.97-9.22 22.78c13.58-4.47 15.52-11.69 21.01-23.99s-1.39-30.35-15.94-24.94c-14.54 5.41-26.37-3.63-35.07 8.93Z"/><path fill="#13191F" fill-opacity="1.00" stroke="None" d="M559 274c-5.69 8.22-9.8 26.93-4.75 36.75 5.04 9.83 26.79 5.87 34.75 3.25 8.18-4.81 6.6-15.12 9.22-22.78S597.9 269.31 588 271s-21.19-2.7-29 3Z"/><path fill="#D9D8CF" fill-opacity="1.00" stroke="None" d="M453 320c-2.22.92-4.34 2.44-6 4 9.92-.55 11.89 10.64 9 18 27.62-13.86 54.97-28.89 83-42 .07-2.78 3.87-3.33 6-4-.79-8.45 1.02-16.29 3-24-35.88 5.22-63.85 34.42-95 48Z"/><path fill="#D9D7CE" fill-opacity="1.00" stroke="None" d="M411 444c1.04 3.3.3 5.95 0 9-1.77 11.01 2.21 30.04-5.25 38.75S385.21 501.16 376 506c-.32 6.52 5.81 9.16 10 12 1.35-.01 9.63-6.05 14.69-7.31 5.07-1.26 11.5-5.3 16.99-7.01 5.49-1.72 11.94-4.83 17.02-7.98 5.07-3.16 9.5-6.58 15.38-8.62 5.87-2.05 11.8-4.7 18.14-5.86 6.35-1.16 12.94-3.58 18.78-6.22 4.27-1.93 16.21-8.87 17-5-.12-.6 1.56 2.35 1 2 2.93-.75 1.78-.52 4 1 3.06 2.1 1.47 2.4 6 0 .56 2.69 5 7.7 7 7-15.75-12.31-4.18-36.5-2.01-53.01 2.17-16.5 7.42-38.55 12.32-54.68 4.89-16.13 21.52-24.07 34.94-32.06 13.41-7.99 27.94-17.37 40.75-26.25-13.21 4.54-23.84 9-39 11s-29.34-9.57-24-26c-29.73 14.53-59.04 30.19-89 44-1.51 9.54 1.47 24.2-5.75 31.25-7.22 7.04-13.38 9.34-18.25 17.75-1.29-6.85-10.59-6.31-16-8 2.08 14.28-4.03 29.34-16.92 34.08-12.9 4.74-25.52 12.13-24.08 26.92 8.56-4.01 31.73-14.52 36-1m77-73c2.86 1.08 5 2.27 4 5-.66 1.79-2.77 3.01-4 4-1.86 1.5-4.27 1.85-6 3-3.06 2.04-6.66 7.62-11.08 8.92-4.43 1.3-7.25 7.46-11.67 8.33-4.41.88-8.16 8.44-12.25 8.75-6.54.49-10.36-12.93-14-16 5.56 1.76 6.85 10.64 13 12-1.49-2.33-3.74-4.53-6-6 10.84-12.46 26.85-22.45 42-29 2.49-.22 4.16.31 6 1m-12 101c-.83 6.53-14.69 8.11-18.68 10.32-3.99 2.22-17.39 9.45-19.32 1.68-2.05-8.25 14.47-9.48 18.23-13.77s21.11-8.75 19.77 1.77Z"/><path fill="#BBBCB1" fill-opacity="1.00" stroke="None" d="M619 308c-19.54 15.43-34.3 28.78-57.7 39.3-23.39 10.52-33.03 39.11-35.29 62.71-2.27 23.59-22.01 58.7 5.07 71.91 27.07 13.22 48.64 16.63 77.92 20.08 9.67 1.14 20.65 2.1 30 3 5.25-.65 10.73.49 16 0-5.09 2.27-12.16.38-18 1-9.84-.67-20.67-2.1-30-3-14.84 1.83-32.03-5.36-46.01-7.99-13.98-2.64-26.24-9.05-38.99-15.01-2 .7-6.44-4.31-7-7-4.53 2.4-2.94 2.1-6 0 2.43 6.95-7.49 6.28-10 3 1.09-2.4 4-2.67 6-4 .56.35-1.12-2.6-1-2-1.94-.55-4.46 1.78-6.23 2.77s-5.08-.06-6.46 2.54c-1.39 2.59-6.51-.08-4.31-.31-5.84 2.64-12.43 5.06-18.78 6.22-6.34 1.16-12.27 3.81-18.14 5.86-5.88 2.04-10.31 5.46-15.38 8.62-5.08 3.15-11.53 6.26-17.02 7.98-5.49 1.71-11.92 5.75-16.99 7.01-5.06 1.26-13.34 7.3-14.69 7.31 9.91 3.92 1.2 16.71 12 20s16.99-4.16 17.7-14.31c.7-10.14 13.74-8.56 20.3-10.69.73 2.03 3.19 2.96 4 5-6.37 2.05-17.77-1.22-19 8 9.15 2.35 18.93 3.56 27.99 6.01s17.97 1.14 24.09 8.91c6.13 7.76 18.03 4.19 26.25 2.41S523 542.25 529 544c-4.19-.02-7.92 1.7-12 2-2.41 18.35 21.89 15.93 26.08 3.08s19.88-12.26 30.91-17.09 27.08-5.96 38.79-10.21c11.7-4.25 24.66-7.59 36.54-11.46S673.24 504.85 682 495c-1.48 1.01-3.24 1.78-5 2-1.07-2.2 4.15-3.65 2-5-3.58 4.27-7.9 5.94-13 7-4.32.9-8.84.4-13 0-19.03.44-38.02-2.67-56.33-4.67-18.31-2.01-31.49-7.94-49.59-11.41-18.11-3.46-25.55-19.7-20.86-36.7 4.7-17 6.59-34.83 9.8-51.2 3.22-16.36 8.22-29.94 23.9-37.1s21.42-16.25 38.07-21.93c16.66-5.68 36.61 3.42 53 6.02s32.38 9.44 49.33 11.67c16.96 2.23 29.58 16.61 16.68 33.32 4.67 7.37 11.88 10.83 17 18 16.41-10.37 31.22-23.24 46-36-.9.04-1.18-.86-2-1-4.8.03-9.32 1.87-12.3-3.7s-2.07-8.49-2.7-13.3c-5.25-18.03-20.68-23.62-38-27-17.31-3.38-35.42-9.12-52.78-12.22-17.36-3.11-36.6-12.37-53.22-3.78M512 498c-7.47 2.15-14.73 7.84-22.08 9.92-7.35 2.09-15.77 9.72-21.92 7.08 14.58-5.19 29.67-15.44 44-17m42 9c-6.56 2.13-13.87 6.18-20.69 8.31-6.83 2.12-14.92 8.85-21.31 4.69 14.42-1.94 28.3-12.95 42-13m38 6c-16.49 5.69-33.35 19.61-51 18 17.67-3.48 33.54-16.43 51-18m-95 15c-7.42 3.43-23.31 2.79-28-5 9.57.66 19.01 2.12 28 5Z"/><path fill="#1A1E23" fill-opacity="1.00" stroke="None" d="M608 314c-12.81 8.88-27.34 18.26-40.75 26.25-13.42 7.99-30.05 15.93-34.94 32.06-4.9 16.13-10.15 38.18-12.32 54.68-2.17 16.51-13.74 40.7 2.01 53.01 12.75 5.96 25.01 12.37 38.99 15.01 13.98 2.63 31.17 9.82 46.01 7.99.53-.07 1.98-1 2-1-29.28-3.45-50.85-6.86-77.92-20.08-27.08-13.21-7.34-48.32-5.07-71.91 2.26-23.6 11.9-52.19 35.29-62.71 23.4-10.52 38.16-23.87 57.7-39.3-3.63 1.87-7.64 3.67-11 6Z"/><path fill="#085B94" fill-opacity="1.00" stroke="None" d="M327 324c5.63 2.53 14.84 2.77 20.02 5.98 5.19 3.2 16.06 1.98 19.98 6.02 2.79-3.62-.73-9.96 2-14-13.49-3.61-26.51-8.6-40-12-.7 4.59-1.28 9.47-2 14Z"/><path fill="#111A22" fill-opacity="1.00" stroke="None" d="M771 337c-.21 3.9-.27 8.1 0 12 .29 4.19 1.29 12.45 7 12 2.88-.83 4.14-8.25 4.78-11.22.63-2.97 3.43-10.42 3.2-13.8-.24-3.39 4.24-10.36-.91-13.05-5.14-2.7.64-8.64-.07-10.93-11.49-6.33-13.54 16.54-14 25Z"/><path fill="#969999" fill-opacity="1.00" stroke="None" d="M778 361c9.46-.74 9.61-15.67 12-23 2.4-7.33 3.79-21.15-5-26 .71 2.29-5.07 8.23.07 10.93 5.15 2.69.67 9.66.91 13.05.23 3.38-2.57 10.83-3.2 13.8-.64 2.97-1.9 10.39-4.78 11.22Z"/><path fill="#212E39" fill-opacity="1.00" stroke="None" d="M1207 314c-23.59-1.95-47.71 8.04-71.78 11.22s-49.05 11.19-73.21 13.79S1018.7 354.48 995 358c10.56 13.3 33.43 1.42 47.31 9.69 13.87 8.28 32.26 10.48 46.47 4.09 14.2-6.4 25.85-12.68 39.14-19.86 13.3-7.17 26.46-12.77 39.86-19.14 13.39-6.38 27.07-10.78 39.22-18.78Z"/><path fill="#BCBCB2" fill-opacity="1.00" stroke="None" d="M374 379c3.32.13 6.68 0 10 0 16.24.61 32.25-5.07 47 3 2.7-4.88 10.27-5.85 12-11-12.25 1.29-26.66 1.95-39 2s-23.78-3.03-34.78-6.22c-10.99-3.2-19.6-6.6-30.2-9.8-10.59-3.21-20.52-6.66-30.95-10.05-10.42-3.39-18.93-7.1-29.39-10.61-10.47-3.5-18.89-6.63-28.99-12.01-10.09-5.39-17.11-8.81-29.69-10.31s-16.45 19.79-3.02 20.02 22.13 3.04 33.34 6.66c11.21 3.61 19.86 7.18 30.61 10.39 10.74 3.22 19.45 7.03 30 10 10.54 2.98 20.54 7.1 31.05 9.95 10.5 2.85 20.96 7.56 32.02 7.98Z"/><path fill="#EECD52" fill-opacity="1.00" stroke="None" d="M367 336c-3.92-4.04-14.79-2.82-19.98-6.02-5.18-3.21-14.39-3.45-20.02-5.98-.74 4.99-.45 10.23-2 15 14.13 3.96 27.55 10.33 42 13 .64-5.48-.13-11.1 0-16Z"/><path fill="#CECDC4" fill-opacity="1.00" stroke="None" d="M384 367c19.82 8.45 43.73.24 65 0 1.11-8.7-.45-15.09 1.02-23.98 1.48-8.89 1.04-11.49-8.02-14.02-11.02.11-20.13 13.92-29.75 18.25-9.62 4.32-17.38 18.53-28.25 19.75Z"/><path fill="#222F39" fill-opacity="1.00" stroke="None" d="M145 360c-10.12-3.39-20.51-4.71-30.93-7.07-10.41-2.37-20.44-4.86-31-7-10.55-2.15-18.75-5.67-29.85-7.15s-18.02-6.98-30.15-7.85c-12.12-.87 2.46 7.74 10.7 10.3s16.52 9.8 25.21 12.8c8.68 2.99 16.78 7.59 25.34 11.65 8.57 4.06 17.21 7.96 26.46 11.54 9.24 3.58 21.92 5.38 32.22 2.78.86-6.63.52-13.55 2-20Z"/><path fill="#727679" fill-opacity="1.00" stroke="None" d="M771 349c-.27-3.9-.21-8.1 0-12-.64 3.97-.72 7.95 0 12Z"/><path fill="#FCFCFC" fill-opacity="1.00" stroke="None" d="M341 446c6.32-.61 14.05-.58 21-1h6c-.4-14.17 8.76-25.17 22.77-29.23S412.95 398.56 410 383c-36.23 9.38-70.7-7.26-103.93-17.07-33.22-9.82-63.66-25.4-99.07-26.93-.09 9.01-2.14 17.16-3 26-.85 8.83 12.2 5.89 16.25 11.75 4.04 5.86 5.65 12.96 13.68 14.32s13.5 5.01 20.99 7.01c7.49 1.99 13.37 5.1 20.86 7.14 7.49 2.05 13.34 4.48 21 7 7.65 2.52 13 3.64 21.15 6.85 8.14 3.22 12.72 2.98 21.99 7.01 9.28 4.02.95 11.25-7.9 7.9-8.84-3.36-16.04-1.26-24.35-3.65s-16.65-1.64-24.66-3.34c-8.02-1.69-16.43-2.33-24.01-3.99-7.58-1.67-14.93-1.95-20.25-7.75-5.31-5.8-9.45-8.82-15.75-12.25-4.07 8.67 12.97 10.29 10.78 19.78-2.2 9.49-3.79 18.46-4.78 28.22 37.64.59 74.61-5 112-5Z"/><path fill="#707378" fill-opacity="1.00" stroke="None" d="M983 343c3.66 0 7.34-.07 11 0-3.48-.42-7.49-.34-11 0Z"/><path fill="#23303A" fill-opacity="1.00" stroke="None" d="M989 354c-.11-1.13-1.67-3.5-2-5h12c-10.37-2.32-22.72.19-33 3 4.13.78 12.27 3.79 8 10 6.07-.71 12.51-2.78 18 0-4.42-2-2.67-4.7-3-8Z"/><path fill="#424D55" fill-opacity="1.00" stroke="None" d="M989 354c4.29-1.24 8.54-2.51 13-3-.06-1.74-2.01-1.58-3-2h-12c.33 1.5 1.89 3.87 2 5Z"/><path fill="#323435" fill-opacity="1.00" stroke="None" d="M778 368c-11.63-2.03-11.89-6.31-15-17 .63 4.81-.28 7.73 2.7 13.3s7.5 3.73 12.3 3.7Z"/><path fill="#23303A" fill-opacity="1.00" stroke="None" d="M932 366c-8.37 2.24-20.75 3.93-32 6-11.26 2.06-23.86 3.69-36 4s-25.75 1.42-38 2-25.46 2.12-37 1c-4.83-.02-9.84-.49-14 2 19.95 3.83 43.99 1.38 65 2s45.87-.72 65.98 1.02c20.1 1.75 28.73-14.61 48.02-17.02-5.34-4.23-15.82-1.6-22-1Z"/><path fill="#424C55" fill-opacity="1.00" stroke="None" d="M789 379c11.54 1.12 24.75-.42 37-1s25.86-1.69 38-2 24.74-1.94 36-4c11.25-2.07 23.63-3.76 32-6-24.03 2.33-48.32 3.63-72 6-23.67 2.38-47.15 7-71 7Z"/><path fill="#B5B6AC" fill-opacity="1.00" stroke="None" d="M446 405c.91 1.43 2.38 2.38 1 4 4.09-.31 7.84-7.87 12.25-8.75 4.42-.87 7.24-7.03 11.67-8.33 4.42-1.3 8.02-6.88 11.08-8.92-2.06.02-4.07-1.4-6-2 .67-1.2 1.64-2.58 3-3 .22-.78-.29-6.99 3-8-15.15 6.55-31.16 16.54-42 29 2.26 1.47 4.51 3.67 6 6Z"/><path fill="#939891" fill-opacity="1.00" stroke="None" d="M479 378c4.35-2.06 5.34 2.39 9 2 1.23-.99 3.34-2.21 4-4 .01-.4-3.47-4.68-4-5-1.84-.69-3.51-1.22-6-1-3.29 1.01-2.78 7.22-3 8Z"/><path fill="#191D21" fill-opacity="1.00" stroke="None" d="M492 376c1-2.73-1.14-3.92-4-5 .53.32 4.01 4.6 4 5Z"/><path fill="#F7F7F7" fill-opacity="1.00" stroke="None" d="M916 390c-4.62 1.02-9.54.43-14 0-33.02-.35-67.43-2.54-100 0 24.02 2.06 49.6 6.42 73 10s46.31 2.22 66 16c4.96-12.8-4.74-33.71 10-41-12.4-.92-22.63 12.26-35 15Z"/><path fill="#6C7174" fill-opacity="1.00" stroke="None" d="M974 375c2.33-.08 4.67 0 7 0 4.33 0 8.67-.09 13 0-6.27-.76-13.65-.91-20 0Z"/><path fill="#4A555C" fill-opacity="1.00" stroke="None" d="M642 375c-19.84-2.4-26.4 12.53-25 28s-5.23 37.24 9.31 43.69c14.54 6.46 31.5 4.74 45.69 7.31 14.19 2.58 31.55 9.57 41.75-3.25 10.19-12.83 3.51-31.17 5.25-47.75s-20-18.41-32.98-20.02C673.05 381.36 655 376.57 642 375m68 17c6.77 4.84 4.75 14.09 5 22s.79 18.99-2 26c-4.6 11.58-14.78 12.75-26 10s-23.84-2.01-34.22-4.78-25.49 3.26-29.7-9.3c-4.22-12.55 4.83-23.63.92-36.92s7.09-22.37 19.02-18.02c11.94 4.34 22.99.9 33.99 5.01 11 4.12 23.48-.79 32.99 6.01Z"/><path fill="#94A0A5" fill-opacity="1.00" stroke="None" d="M950 383c-2.5 6.06 1.88 17.7 0 25 3.83 1.15 7.9-3.96 11-1 6.15-1.23 12.53-1 19-1-2.26-1.5 1.13-12.68.33-15.67s4.74-12.7.67-15.33c-2.33 0-4.67-.08-7 0-6.4.22-20.71 1.5-24 8Z"/><path fill="#DFE1DF" fill-opacity="1.00" stroke="None" d="M980 406c9.49 0 19.1-.27 28 2-2.04-7.7-.55-21.08-1-31-4.43-1.24-8.24-1.9-13-2-4.33-.09-8.67 0-13 0 4.07 2.63-1.47 12.34-.67 15.33S977.74 404.5 980 406Z"/><path fill="#222F3A" fill-opacity="1.00" stroke="None" d="M579 376c-4.16-2.56-11.05 7.41-12.69 11.31-1.65 3.9-4.29 12.25-5.32 17.68-1.02 5.44-2.86 12.8-4.01 18.99-1.15 6.18-2.63 12.23-3.98 19.02s.33 13.45-2.22 20.78 10.02 8.23 10.29 1.29c.27-6.93 6.01-12.49 3.85-18.99-2.16-6.51-2.95-13.16-2.92-20.08s1.26-15 2.22-20.78c.96-5.77 6.23-10.81 9.01-13.99s8.65-13.46 5.77-15.23Z"/><path fill="#151B22" fill-opacity="1.00" stroke="None" d="M479 378c-1.36.42-2.33 1.8-3 3 1.93.6 3.94 2.02 6 2 1.73-1.15 4.14-1.5 6-3-3.66.39-4.65-4.06-9-2Z"/><path fill="#9AA1A4" fill-opacity="1.00" stroke="None" d="M1008 408c3.78 2.13 9.03 2.4 13 5 .08-7.75 1.3-17.39 1-25-.31-7.61-9.02-9.33-15-11 .45 9.92-1.04 23.3 1 31Z"/><path fill="#23303B" fill-opacity="1.00" stroke="None" d="M618 378c-7.07 2.85-16.82.73-22 7 26.27 12.98 13.06 54.17-5 70 9.41 7.9 23.29 5.89 34.93 8.07 11.63 2.19 26.72 2.83 38.05 4.95 11.32 2.13 26.32 7.74 31.02-6.02-16.01-1.3-33.5-6.83-49.33-7.67S611.02 449.3 613 430s-2.4-34.76 5-52Z"/><path fill="#626767" fill-opacity="1.00" stroke="None" d="M384 379c-3.32 0-6.68.13-10 0 3.24.46 6.75.31 10 0Z"/><path fill="#0D171F" fill-opacity="1.00" stroke="None" d="M713 440c2.35-15.38-.02-34.66-3-48-9.51-6.8-21.99-1.89-32.99-6.01-11-4.11-22.05-.67-33.99-5.01-11.93-4.35-22.93 4.73-19.02 18.02s-5.14 24.37-.92 36.92c4.21 12.56 19.32 6.53 29.7 9.3s23 2.03 34.22 4.78 21.4 1.58 26-10m-68-55c18.77 1.82 30.21 5.65 50.01 7.99s15.61 23.96 14 42.02c-1.61 18.05-29.23 11.29-42.68 8.66s-42.48.37-39.33-18.67-7.75-42.49 18-40Z"/><path fill="#222F3A" fill-opacity="1.00" stroke="None" d="M218 384c-5.28.72-9.78-1.56-15-1-4.3 10.05 9.45 9.31 15 14z"/><path fill="#B5BBBD" fill-opacity="1.00" stroke="None" d="M961 407c-3.1-2.96-7.17 2.15-11 1 1.88-7.3-2.5-18.94 0-25-2.74 8.34-1.86 18.61-2 28 4.07-2.15 8.56-3.11 13-4Z"/><path fill="#26343D" fill-opacity="1.00" stroke="None" d="M645 385c-25.75-2.49-14.85 20.96-18 40s25.88 16.04 39.33 18.67 41.07 9.39 42.68-8.66c1.61-18.06 5.8-39.68-14-42.02S663.77 386.82 645 385m12 4c15.65 1.52 37.19.33 44.32 16.68 7.14 16.35-1.16 41.57-19.39 37.39-18.24-4.17-37.47 1.71-45.23-15.76-7.77-17.48.71-40.21 20.3-38.31Z"/><path fill="#111A20" fill-opacity="1.00" stroke="None" d="M657 389c-19.59-1.9-28.07 20.83-20.3 38.31 7.76 17.47 26.99 11.59 45.23 15.76 18.23 4.18 26.53-21.04 19.39-37.39-7.13-16.35-28.67-15.16-44.32-16.68m21 32c-.76 4.26-3.6 6.16-7 8-12.08 6.52-23.96-5.29-16.23-17.23 7.73-11.93 25.77-4.95 23.23 9.23Z"/><path fill="#F8F6EE" fill-opacity="1.00" stroke="None" d="M741 442c-.23-3.17.05-6.12 1-9 16.67 5.21 32.93 8.56 50.67 10.33s39.58 3.75 57.33 4.67 39.88 5.3 57 4 21.17-21.83 28-32c-14.04-10.97-31.68-9.8-49-13-17.32-3.21-37.62-3.31-54.98-7.02-17.35-3.71-35.88-4.49-52.95-9.05C761 386.36 752.42 402 738 409c1.66 5.05 1.2 11.89 2 17s-2.49 13.23 1 16Z"/><path fill="#8F9093" fill-opacity="1.00" stroke="None" d="M916 390c-4.56.47-9.41 0-14 0 4.46.43 9.38 1.02 14 0Z"/><path fill="#23303B" fill-opacity="1.00" stroke="None" d="M605 420c-2.52 4.29-20.38 4.28-18-4s-2.12-15.47-3-23h17c-8.55-3.39-23.87-4.67-29.69 6.31-5.83 10.97-5.44 20.99-5.09 34.47s14.39 9.76 17.78-1.78c.42 7.13-8 10.09-10 16 19.13 7.44 28.64-13.14 31-28Z"/><path fill="#2B3740" fill-opacity="1.00" stroke="None" d="M713 440c2.79-7.01 2.25-18.09 2-26s1.77-17.16-5-22c2.98 13.34 5.35 32.62 3 48Z"/><path fill="#202429" fill-opacity="1.00" stroke="None" d="M447 409c1.38-1.62-.09-2.57-1-4-6.15-1.36-7.44-10.24-13-12 3.64 3.07 7.46 16.49 14 16Z"/><path fill="#3A464F" fill-opacity="1.00" stroke="None" d="M605 420c1.27-8.01 3.08-21.52-4-27h-17c.88 7.53 5.38 14.72 3 23s15.48 8.29 18 4Z"/><path fill="#212E39" fill-opacity="1.00" stroke="None" d="M319 425c-16.31-3.09-32.04-11.01-47.99-15.01C255.05 406 239.33 397.37 224 396c13.74 9.14 23.06 22.37 41 22s36.95 8.09 54 7Z"/><path fill="#23303A" fill-opacity="1.00" stroke="None" d="M735 435c-1.63 2.5-8.57 1.07-11 2v-34c2.41 1.11 3.62 3.96 6 5-1.74-2.26-3.97-5.59-7-6 .42 9.55-.56 20.6 0 30s-2.37 15.75-6.75 23.25c-4.38 7.49-15.4 5.1-17.25 12.75 21.39 6.09 34.58-15.16 36-33Z"/><path fill="#3E4A52" fill-opacity="1.00" stroke="None" d="M735 435c.73-9.24.07-19.39-5-27-2.38-1.04-3.59-3.89-6-5v34c2.43-.93 9.37.5 11-2Z"/><path fill="#192F34" fill-opacity="1.00" stroke="None" d="M671 429c-10.63 3.78-22.04-6.15-14.69-16.69 7.34-10.55 21.69-1.37 21.69 8.69 2.54-14.18-15.5-21.16-23.23-9.23-7.73 11.94 4.15 23.75 16.23 17.23Z"/><path fill="#2B4C4E" fill-opacity="1.00" stroke="None" d="M671 429c3.4-1.84 6.24-3.74 7-8 0-10.06-14.35-19.24-21.69-8.69-7.35 10.54 4.06 20.47 14.69 16.69m-6-18c5.07.75 5.74 9.29-.23 8.21s-6.67-9.23.23-8.21Z"/><path fill="#E7E6E0" fill-opacity="1.00" stroke="None" d="M210 440c-.44-4.33.6-11.12 1-15s-1.05-11.7 3-13c-4.49-1.66-9.2-2.56-14-3-.67 9.68-1.72 19.24-2 29 4.17.08 8.08 1.04 12 2Z"/><path fill="#5C5E61" fill-opacity="1.00" stroke="None" d="M974 410h16c-4.97-.48-10.96-.49-16 0Z"/><path fill="#CCCFCC" fill-opacity="1.00" stroke="None" d="M990 410h-16c-9.05.33-19.14 1.35-26 7 22.53-2.35 49.32-5.54 72 3-6.12-7.89-19.71-10-30-10Z"/><path fill="#4A6E6B" fill-opacity="1.00" stroke="None" d="M665 411c-6.9-1.02-6.2 7.13-.23 8.21s5.3-7.46.23-8.21Z"/><path fill="#9BA2A5" fill-opacity="1.00" stroke="None" d="M210 440c4.8 1.31 9.28 3.54 14 5 2.8-15.1 6.78-27.11-10-33-4.05 1.3-2.6 9.12-3 13s-1.44 10.67-1 15Z"/><path fill="#C2C2B8" fill-opacity="1.00" stroke="None" d="M741 442c16.67 5.2 33.01 9.62 50.99 10.01 17.99.38 37.11 4.64 55.01 4.99s38.7 3.99 56 4 34.48 5.73 49 11 47.73-9.5 49 11-4.45 36.28-4 56-4.94 36.32-4 56c2.67-1.28 4.95-2.92 8-3 3.83-4.22.04-13.33 1.98-19.02 1.93-5.69-1.29-14.98 1-21 2.28-6.03-.51-14.69 1.02-20.98s1.9-12.3 2-19 1.83-13.26 2-20c.17-6.75 2.09-12.92 1-19-.02 1 .41 2.73-1 3-.37-18.04-23.62-14.15-35-19-1.28-.43-3.09-1.69-5-1-.05-11.25 4.46-25.17 0-35-10.47.57-24.29 3.59-34-1-6.83 10.17-10.88 30.7-28 32s-39.25-3.08-57-4-39.59-2.9-57.33-4.67-34-5.12-50.67-10.33c-.95 2.88-1.23 5.83-1 9Z"/><path fill="#F7F6EE" fill-opacity="1.00" stroke="None" d="M969 421c4.46 9.83-.05 23.75 0 35 1.91-.69 3.72.57 5 1 15.3 2.59 32.51-3.47 36 16 1.09 6.08-.83 12.25-1 19-.17 6.74-1.9 13.3-2 20s-.47 12.71-2 19 1.26 14.95-1.02 20.98c-2.29 6.02.93 15.31-1 21-1.94 5.69 1.85 14.8-1.98 19.02 7.14 2.28 16.18 1.49 23 6 2.77-19.63 3.85-41.31 6.07-60.93 2.23-19.61 4.86-39.84 6.93-59.07s8.36-40.57-11.77-49.23-34.51-8.95-56.23-7.77Z"/><path fill="#E3E3DF" fill-opacity="1.00" stroke="None" d="M209 449c.02-1.64.19-3.71-1-5-4.22-1.04-12.73-4.78-12 3 4.46.25 8.77.97 13 2Z"/><path fill="#C1C2B8" fill-opacity="1.00" stroke="None" d="M187 447c-12.38-4.22-26.78-5.12-40-3 9.23 7.72 28.66 8.31 40 3Z"/><path fill="#A9B0AF" fill-opacity="1.00" stroke="None" d="M209 449c4.23 1.39 8.48 2.78 13 3-1.63-5.49-9.17-6.61-14-8 1.19 1.29 1.02 3.36 1 5Z"/><path fill="#787977" fill-opacity="1.00" stroke="None" d="M411 453c.3-3.05 1.04-5.7 0-9 .5 2.79 0 6.15 0 9Z"/><path fill="#6E7173" fill-opacity="1.00" stroke="None" d="M341 446c7.06 0 14.63.08 21-1-6.95.42-14.68.39-21 1Z"/><path fill="#808281" fill-opacity="1.00" stroke="None" d="M380 451c3.18 0 6.87-.53 10 0-3.52-1.07-6.59-.33-10 0Z"/><path fill="#F7F6EE" fill-opacity="1.00" stroke="None" d="M176 457c-.77 8.96-1.78 17.88-2 27-5.47.66-14.15-1.86-17 3 14.79-2.52 35.2-4.13 49 3 2.85-.35 12.6-3.14 20-2s17.33-.65 25 0 15.11 1.17 23 1 15.17 1.85 23.02 1.98c7.86.12 15.12.55 22.98 1.02s15.92.86 24 1 16.86-.1 25 0c4.07-12.71 5.47-27.42 3-41 5.52 2.18 19.32-4.23 21.92 3.08S391.31 473.31 395 480v-13c0-3.62.88-8.51 0-12-1.35-3.31-1.71-3-5-4-3.13-.53-6.82 0-10 0-14.27 0-29.06.14-43 1s-28.24 1.29-42 2-28.29 2.54-42 2c-13.7-.53-28 4.95-40.93-1.07C199.15 448.9 188.56 456 176 457Z"/><path fill="#C2C2B8" fill-opacity="1.00" stroke="None" d="M206 490c.43 2.26 3.51 1.78 4 4-17.82-4.69-37.73-8.8-56-3 8.56 3.53 18.64 7.1 28.33 7.67s21.72 5.22 30.98.64c9.25-4.59 20.53-5.73 31.47-4.09s21.91.66 33.22 1.78c11.31 1.13 22.03 1.31 33.78 2.22 11.75.92 20.75.37 33.22 1.78s18.6-5.45 32-4 18-2.66 18-17c-3.69-6.69 1.52-17.61-1.08-24.92s-16.4-.9-21.92-3.08c2.47 13.58 1.07 28.29-3 41-8.14-.1-16.92.14-25 0s-16.14-.53-24-1-15.12-.9-22.98-1.02c-7.85-.13-15.13-2.15-23.02-1.98s-15.33-.35-23-1-17.6 1.14-25 0-17.15 1.65-20 2Z"/><path fill="#797973" fill-opacity="1.00" stroke="None" d="M395 467c.37-3.78 1.63-8 0-12 .88 3.49 0 8.38 0 12Z"/><path fill="#D3D2CA" fill-opacity="1.00" stroke="None" d="M157 487c2.85-4.86 11.53-2.34 17-3 .22-9.12 1.23-18.04 2-27-5.88 2.25-22.45-4.7-24 4s-.06 18.16-1 27c2.15-.15 3.92-.65 6-1Z"/><path fill="#222F3A" fill-opacity="1.00" stroke="None" d="M665 473c-12.53-2.81-24.49-1.52-37-5s-24.2 2.52-35.75-6.25c-11.56-8.76-6.22 7.62 4.73 10.27 10.94 2.66 26.17 3.46 37.02 4.98 10.84 1.52 26.19 8.3 31-4Z"/><path fill="#1A1F25" fill-opacity="1.00" stroke="None" d="M1010 473c-3.49-19.47-20.7-13.41-36-16 11.38 4.85 34.63.96 35 19 1.41-.27.98-2 1-3Z"/><path fill="#131920" fill-opacity="1.00" stroke="None" d="M438 484c.26.58 8.12-4.74 11.23-5.77s8.8-4.61 12.47-6.53c3.66-1.93 10.98-5.06 14.3.3 1.34-10.52-16.01-6.06-19.77-1.77S435.95 475.75 438 484Z"/><path fill="#0C1116" fill-opacity="1.00" stroke="None" d="M487 475c-2.2.23 2.92 2.9 4.31.31 1.38-2.6 4.69-1.55 6.46-2.54s4.29-3.32 6.23-2.77c-.79-3.87-12.73 3.07-17 5Z"/><path fill="#788083" fill-opacity="1.00" stroke="None" d="M438 484c1.93 7.77 15.33.54 19.32-1.68 3.99-2.21 17.85-3.79 18.68-10.32-3.32-5.36-10.64-2.23-14.3-.3-3.67 1.92-9.36 5.5-12.47 6.53S438.26 484.58 438 484Z"/><path fill="#161C23" fill-opacity="1.00" stroke="None" d="M505 472c-2 1.33-4.91 1.6-6 4 2.51 3.28 12.43 3.95 10-3-2.22-1.52-1.07-1.75-4-1Z"/><path fill="#9C9E92" fill-opacity="1.00" stroke="None" d="M679 492c2.15 1.35-3.07 2.8-2 5 1.76-.22 3.52-.99 5-2 4.92-4.87 7.89-12.2 9-19-7.95-.32-7.5 10.63-12 16Z"/><path fill="#181C21" fill-opacity="1.00" stroke="None" d="M512 498c-14.33 1.56-29.42 11.81-44 17 6.15 2.64 14.57-4.99 21.92-7.08 7.35-2.08 14.61-7.77 22.08-9.92Z"/><path fill="#616463" fill-opacity="1.00" stroke="None" d="M666 499c-4.25.39-8.73 0-13 0 4.16.4 8.68.9 13 0Z"/><path fill="#737578" fill-opacity="1.00" stroke="None" d="M734 501h29c-9.05-.88-19.88-.88-29 0Z"/><path fill="#4B4D4C" fill-opacity="1.00" stroke="None" d="M607 503c9.33.9 20.16 2.33 30 3 .43-.1 1.09-.89 2-1-9.35-.9-20.33-1.86-30-3-.02 0-1.47.93-2 1Z"/><path fill="#202223" fill-opacity="1.00" stroke="None" d="M637 506c5.84-.62 12.91 1.27 18-1-5.27.49-10.75-.65-16 0-.91.11-1.57.9-2 1Z"/><path fill="#222F3A" fill-opacity="1.00" stroke="None" d="M846 513c-14.66-1.09-29.32-3.13-44-4s-30.31-1.51-44.93-2.07c-14.62-.57-30.5-.9-45.07 1.07s-27.71-6.72-39 2c20.29.5 36.21 7.04 53.77 17.23 17.57 10.19 41.46-1.41 60.21-3.25 18.74-1.85 40.57-8.05 59.02-10.98Z"/><path fill="#191D22" fill-opacity="1.00" stroke="None" d="M554 507c-13.7.05-27.58 11.06-42 13 6.39 4.16 14.48-2.57 21.31-4.69 6.82-2.13 14.13-6.18 20.69-8.31Z"/><path fill="#171C22" fill-opacity="1.00" stroke="None" d="M592 513c-17.46 1.57-33.33 14.52-51 18 17.65 1.61 34.51-12.31 51-18Z"/><path fill="#F0F1F1" fill-opacity="1.00" stroke="None" d="M647 518c-10.29 1.72-19.69 6.48-30 8 4.37 5.71 11.9 11.69 19 14-3.95-11 6.53-16.14 11-22Z"/><path fill="#11181F" fill-opacity="1.00" stroke="None" d="M497 528c-8.99-2.88-18.43-4.34-28-5 4.69 7.79 20.58 8.43 28 5Z"/><path fill="#8A969B" fill-opacity="1.00" stroke="None" d="M646 528c-1.59.98-5.85 13.96-5 17 .83 2.13 6.84 5.52 9 6 2.58.33 6-2.23 9 0h1c-2.27-6.7 1.39-16.75 1-24-1.88-.47-4.93 1.06-6-1-2.98.24-6.58.92-9 2Z"/><path fill="#DDE0DE" fill-opacity="1.00" stroke="None" d="M660 551c10.93 0 19.99.96 30 4 6.3-2.56-1.27-20.97 4-24-11.18-5.23-26.32-6.01-39-5 1.07 2.06 4.12.53 6 1 .39 7.25-3.27 17.3-1 24Z"/><path fill="#BEC4C5" fill-opacity="1.00" stroke="None" d="M641 545c-.85-3.04 3.41-16.02 5-17-4.31 1.92-6.95 11.97-5 17Z"/><path fill="#F6F5ED" fill-opacity="1.00" stroke="None" d="M576 538c2.66 6.02 9.3 7.93 14.25 11.75 4.94 3.82 11.18 6.2 16.45 9.56 5.26 3.35 10.53 6.99 16 9.99 5.46 3.01 10.32 7.45 16 10 5.67 2.56 10.37 7.92 16.38 9.62 6 1.71 14.96 5.71 17.92 7.08 7.74 1.45 15.53 2.68 23 5 .71-10.44 7.03-25.29-3.92-31.08-10.96-5.78-22.94-5.25-34.01-6.99-11.06-1.75-15.52-12.56-24.99-16.01S618.94 531.54 609 530s-23.77 5.12-33 8Z"/><path fill="#BEC0B9" fill-opacity="1.00" stroke="None" d="M690 555c3.32-.01 5.94 2.1 9 3-.95-9.49 5.73-21.98-5-27-5.27 3.03 2.3 21.44-4 24Z"/><path fill="#BBBCB1" fill-opacity="1.00" stroke="None" d="M642 595c4.78-.58 10.31-.45 15 0 5.54 0 10.74.16 16 1-2.96-1.37-11.92-5.37-17.92-7.08-6.01-1.7-10.71-7.06-16.38-9.62-5.68-2.55-10.54-6.99-16-10-5.47-3-10.74-6.64-16-9.99-5.27-3.36-11.51-5.74-16.45-9.56-4.95-3.82-11.59-5.73-14.25-11.75-8.13 2.29-17.21 4.43-24 9 14.14 6 30.2 13.6 43.31 21.7 13.1 8.09 32.95 11.14 36.69 27.3 3.35-.81 6.44-.93 10-1Z"/><path fill="#60696D" fill-opacity="1.00" stroke="None" d="M650 551c2.7.6 6.23 0 9 0-3-2.23-6.42.33-9 0Z"/><path fill="#D9DAD6" fill-opacity="1.00" stroke="None" d="M698 566c-8.12-12.95-28.53-10.13-43-11 12.17 8.26 30.11 3.43 43 11Z"/><path fill="#6B6E6B" fill-opacity="1.00" stroke="None" d="M642 595c5-.1 10 0 15 0-4.69-.45-10.22-.58-15 0Z"/><path fill="#BDBEB4" fill-opacity="1.00" stroke="None" d="M1020 600c-6.42-3.59-15.72-5.06-23-4 5.67 4.88 15.61 6.02 23 4Z"/><path fill="#646B6A" fill-opacity="1.00" stroke="None" d="M645 598h12c-3.71-.36-8.23-.37-12 0Z"/><path fill="#BDBEB3" fill-opacity="1.00" stroke="None" d="M670 606c5.31 0 10.7.29 16 0 2.49.12 5.53.16 7-2-10.75-5.04-23.53-6-36-6h-12c-2.42.68-7.9-1.67-8 2 10.45 3.86 21.55 6 33 6Z"/><path fill="#565756" fill-opacity="1.00" stroke="None" d="M686 606c-5.3.29-10.69 0-16 0 5.04.49 10.84.84 16 0Z"/><path fill="#828485" fill-opacity="1.00" stroke="None" d="M1021 606c-3.83.43-8.14.15-12 0 3.95.56 7.92.95 12 0Z"/></svg>