<svg xmlns="http://www.w3.org/2000/svg" width="46" height="40" viewBox="0 0 46 40" fill="none">
  <g clip-path="url(#clip0_286_678)">
    <path
      d="M27.2617 30.7134V22.2666C27.2617 22.1909 27.2918 22.1233 27.3402 22.0731L31.8854 26.5973C31.8178 26.6648 31.7749 26.7598 31.7749 26.8629V30.7134C31.7749 30.8677 31.649 30.9927 31.4956 30.9927H27.542C27.3868 30.9927 27.2626 30.8677 27.2626 30.7134H27.2617Z"
      fill="#FFD719" />
    <path
      d="M27.3403 22.0722C27.3905 22.0193 27.4627 21.9864 27.5421 21.9864H36.0071C36.1605 21.9864 36.2864 22.1115 36.2864 22.2657V26.2093C36.2864 26.3645 36.1605 26.4886 36.0071 26.4886H32.1475C32.0452 26.4886 31.953 26.5297 31.8855 26.5964L27.3403 22.0722Z"
      fill="#0F5EBB" />
    <path
      d="M45.3127 22.3598V39.6266C45.3127 39.8329 45.1457 39.9991 44.9394 39.9991H27.6351C27.4288 39.9991 27.2617 39.832 27.2617 39.6266V35.8693C27.2617 35.663 27.4288 35.4968 27.6351 35.4968H40.491C40.6973 35.4968 40.8634 35.3298 40.8634 35.1244V22.3598C40.8634 22.1534 41.0305 21.9873 41.2359 21.9873H44.9385C45.1448 21.9873 45.3118 22.1544 45.3118 22.3598H45.3127Z"
      fill="#0F5EBB" />
    <path
      d="M20.629 39.9991H15.3453C15.2467 39.9991 15.1518 39.9598 15.0815 39.8895L5.7593 30.5244C5.61689 30.3811 5.61415 30.1483 5.75474 30.0032L6.60279 29.1204L13.6291 22.095C13.6994 22.0247 13.7944 21.9855 13.8929 21.9855H19.1456C19.477 21.9855 19.644 22.3871 19.4094 22.6227L12.0462 29.9868C11.9011 30.1319 11.9011 30.3683 12.0462 30.5144L20.8937 39.3619C21.1283 39.5965 20.9631 39.9982 20.6299 39.9982H20.629V39.9991Z"
      fill="#0F5EBB" />
    <path
      d="M4.14278 21.9864H0.375379C0.169071 21.9864 0.00292969 22.1534 0.00292969 22.3588V39.6257C0.00292969 39.832 0.169984 39.9982 0.375379 39.9982H4.14278C4.34909 39.9982 4.51614 39.8311 4.51614 39.6257V22.3588C4.51614 22.1525 4.34909 21.9864 4.14278 21.9864Z"
      fill="#0F5EBB" />
    <path
      d="M45.3131 9.3788V17.6402C45.3131 17.8466 45.146 18.0127 44.9397 18.0127H41.1413C40.935 18.0127 40.7688 17.8456 40.7688 17.6402V13.8829C40.7688 13.6766 40.6018 13.5104 40.3964 13.5104H35.6139C35.2816 13.5104 35.1154 13.1088 35.35 12.8742L37.6048 10.6194L39.1083 9.11681C39.1786 9.04652 39.2735 9.00726 39.3721 9.00726H44.9397C45.146 9.00726 45.3131 9.17432 45.3131 9.38063V9.3788Z"
      fill="#0F5EBB" />
    <path
      d="M45.3127 0.279335V4.22292C45.3127 4.37811 45.1876 4.50226 45.0333 4.50226H37.6409C37.5661 4.50226 37.4958 4.53238 37.4429 4.58441L35.6034 6.42384L34.8923 7.13405L34.6714 7.35497L33.0209 9.00634L29.2033 12.824L28.5168 13.5104L24.0958 17.9314C24.0438 17.9835 23.9717 18.0136 23.8977 18.0136H18.5328C18.2005 18.0136 18.0344 17.6119 18.269 17.3764L22.1359 13.5095L24.7147 10.9307L26.64 9.00543L31.1432 4.50226L34.6714 0.974026L34.7033 0.942076L35.5642 0.0812425C35.6162 0.0292091 35.6883 -0.000915527 35.7623 -0.000915527H45.0342C45.1894 -0.000915527 45.3136 0.124147 45.3136 0.278422L45.3127 0.279335Z"
      fill="#0F5EBB" />
    <path
      d="M28.3044 0C28.6366 0 28.8028 0.400749 28.5682 0.635355L24.7962 4.4201C24.7442 4.47213 24.6721 4.50226 24.599 4.50226H14.1978C13.9915 4.50226 13.8254 4.66931 13.8254 4.87562V17.6402C13.8254 17.8465 13.6583 18.0127 13.452 18.0127H9.54129C9.33498 18.0127 9.16884 17.8456 9.16884 17.6402V4.87562C9.16884 4.66931 9.00178 4.50226 8.79639 4.50226H0.37245C0.166142 4.50226 0 4.33521 0 4.12981V0.37245C0 0.167055 0.167055 0 0.37245 0H28.3044Z"
      fill="#0F5EBB" />
  </g>
  <defs>
    <clipPath id="clip0_286_678">
      <rect width="45.3129" height="40" fill="white" />
    </clipPath>
  </defs>
</svg>