<svg xmlns="http://www.w3.org/2000/svg" width="46" height="40" fill="none" viewBox="0 0 46 40"><g clip-path="url(#a)"><path fill="#FFD719" d="M27.262 30.713v-8.446c0-.076.03-.144.078-.194l4.545 4.524a.38.38 0 0 0-.11.266v3.85a.28.28 0 0 1-.28.28h-3.953a.28.28 0 0 1-.28-.28"/><path fill="#0F5EBB" d="M27.34 22.072a.28.28 0 0 1 .202-.086h8.465a.28.28 0 0 1 .28.28v3.943a.28.28 0 0 1-.28.28h-3.86a.37.37 0 0 0-.261.107z"/><path fill="#1C2F43" d="M45.313 22.36v17.267a.37.37 0 0 1-.374.372H27.635a.373.373 0 0 1-.373-.372v-3.758c0-.206.167-.372.373-.372h12.856a.37.37 0 0 0 .372-.373V22.36c0-.207.168-.373.373-.373h3.703c.206 0 .373.167.373.373M20.629 40h-5.284a.37.37 0 0 1-.264-.11L5.76 30.524a.373.373 0 0 1-.004-.52l.848-.884 7.026-7.025c.07-.07.165-.11.264-.11h5.253c.331 0 .498.402.263.638l-7.363 7.364a.374.374 0 0 0 0 .527l8.848 8.848a.373.373 0 0 1-.264.636h-.001zM4.143 21.986H.375a.37.37 0 0 0-.372.373v17.267c0 .206.167.372.372.372h3.768a.373.373 0 0 0 .373-.372V22.359a.37.37 0 0 0-.373-.373m41.17-12.607v8.261a.37.37 0 0 1-.373.373h-3.8a.37.37 0 0 1-.372-.373v-3.757a.37.37 0 0 0-.373-.373h-4.782a.373.373 0 0 1-.264-.636l2.255-2.255 1.503-1.502c.07-.07.166-.11.264-.11h5.568c.206 0 .373.167.373.374zm0-9.099v3.943a.28.28 0 0 1-.28.28h-7.392a.28.28 0 0 0-.198.081l-1.84 1.84-.71.71-.222.221-1.65 1.651-3.818 3.818-.686.686-4.421 4.421a.28.28 0 0 1-.198.083h-5.365a.373.373 0 0 1-.264-.638l3.867-3.867 2.579-2.578 1.925-1.926 4.503-4.503L34.671.974l.032-.032.861-.86a.28.28 0 0 1 .198-.083h9.272a.28.28 0 0 1 .28.28zM28.304 0c.333 0 .499.4.264.635L24.796 4.42a.28.28 0 0 1-.197.082H14.198a.37.37 0 0 0-.373.374V17.64a.373.373 0 0 1-.373.373h-3.91a.37.37 0 0 1-.373-.373V4.876a.373.373 0 0 0-.373-.374H.372A.37.37 0 0 1 0 4.13V.372C0 .167.167 0 .372 0z"/></g><defs><clipPath id="a"><path fill="#fff" d="M0 0h45.313v40H0z"/></clipPath></defs></svg>